<?xml version="1.0" standalone="no"?>
<!DOCTYPE svg PUBLIC "-//W3C//DTD SVG 1.1//EN" "http://www.w3.org/Graphics/SVG/1.1/DTD/svg11.dtd" >
<svg xmlns="http://www.w3.org/2000/svg">
<metadata>
Created by FontForge 20120731 at Tue Jun 20 18:39:53 2017
 By admin
</metadata>
<defs>
<font id="iconfont" horiz-adv-x="1024" >
  <font-face 
    font-family="iconfont"
    font-weight="500"
    font-stretch="normal"
    units-per-em="1024"
    panose-1="2 0 6 3 0 0 0 0 0 0"
    ascent="896"
    descent="-128"
    x-height="792"
    bbox="-41 -224 1566 896.5"
    underline-thickness="0"
    underline-position="0"
    unicode-range="U+0078-E850"
  />
<missing-glyph 
 />
    <glyph glyph-name=".notdef" 
 />
    <glyph glyph-name=".notdef" 
 />
    <glyph glyph-name=".null" horiz-adv-x="0" 
 />
    <glyph glyph-name="nonmarkingreturn" horiz-adv-x="341" 
 />
    <glyph glyph-name="x" unicode="x" horiz-adv-x="1001" 
d="M281 543q-27 -1 -53 -1h-83q-18 0 -36.5 -6t-32.5 -18.5t-23 -32t-9 -45.5v-76h912v41q0 16 -0.5 30t-0.5 18q0 13 -5 29t-17 29.5t-31.5 22.5t-49.5 9h-133v-97h-438v97zM955 310v-52q0 -23 0.5 -52t0.5 -58t-10.5 -47.5t-26 -30t-33 -16t-31.5 -4.5q-14 -1 -29.5 -0.5
t-29.5 0.5h-32l-45 128h-439l-44 -128h-29h-34q-20 0 -45 1q-25 0 -41 9.5t-25.5 23t-13.5 29.5t-4 30v167h911zM163 247q-12 0 -21 -8.5t-9 -21.5t9 -21.5t21 -8.5q13 0 22 8.5t9 21.5t-9 21.5t-22 8.5zM316 123q-8 -26 -14 -48q-5 -19 -10.5 -37t-7.5 -25t-3 -15t1 -14.5
t9.5 -10.5t21.5 -4h37h67h81h80h64h36q23 0 34 12t2 38q-5 13 -9.5 30.5t-9.5 34.5q-5 19 -11 39h-368zM336 498v228q0 11 2.5 23t10 21.5t20.5 15.5t34 6h188q31 0 51.5 -14.5t20.5 -52.5v-227h-327z" />
    <glyph glyph-name="gongjudaoyou" unicode="&#xe60d;" 
d="M289 288q68 0 116.5 50.5t48.5 121.5t-48.5 121.5t-116.5 50.5t-116 -50.5t-48 -121.5t48 -121.5t116 -50.5zM293 220q-95 0 -162.5 -70.5t-67.5 -170.5v-62h392v234q-67 69 -162 69zM593 574v58h-69v-715h69v343l368 157z" />
    <glyph glyph-name="guanbi" unicode="&#xe611;" 
d="M822 -10q-10 -10 -24 -10t-24 10l-572 573q-10 10 -10 23.5t10 23.5v0q10 10 24 10t23 -10l573 -572q10 -10 10 -24t-10 -24v0zM202 -10q-10 10 -10 24t10 24l572 572q10 10 24 10t24 -10v0q10 -10 10 -23.5t-10 -23.5l-573 -573q-9 -10 -23 -10t-24 10v0z" />
    <glyph glyph-name="weixin" unicode="&#xe675;" 
d="M513 -156q-91 0 -174 35.5t-143 95.5t-95.5 143t-35.5 173.5t35.5 173.5t95.5 143t143 95.5t174 35.5t174 -35.5t143 -95.5t95.5 -143t35.5 -173.5t-35.5 -173.5t-95.5 -143t-143 -95.5t-174 -35.5zM513 722q-117 0 -216.5 -57.5t-157 -157t-57.5 -216t57.5 -216
t157 -157t216.5 -57.5t216 57.5t156.5 157t57.5 216t-57.5 216t-156.5 157t-216 57.5zM615 357q10 0 21 -1q-14 65 -76 108.5t-142 43.5q-89 0 -152.5 -53.5t-63.5 -130.5q0 -85 86 -146l-21 -65l75 38q55 -11 76 -11q10 0 20 1q-6 23 -6 45q0 71 53 121t130 50zM499 416
q12 0 19.5 -7.5t7.5 -19.5t-7.5 -19.5t-19.5 -7.5q-13 0 -22.5 7.5t-9.5 19.5t9.5 19.5t22.5 7.5zM348 362q-13 0 -23 7.5t-10 19.5t10 19.5t23 7.5q12 0 19.5 -7.5t7.5 -19.5t-7.5 -19.5t-19.5 -7.5zM812 189q0 64 -55 110.5t-128 46.5q-77 0 -130.5 -46t-53.5 -111
t53.5 -111t130.5 -46q22 0 65 11l59 -33l-16 54q75 57 75 125zM569 216q-8 0 -14.5 6.5t-6.5 15t6.5 15t14.5 6.5q12 0 19.5 -6.5t7.5 -15t-7.5 -15t-19.5 -6.5zM688 216q-8 0 -14.5 6.5t-6.5 15t6.5 15t14.5 6.5q12 0 19.5 -6.5t7.5 -15t-7.5 -15t-19.5 -6.5z" />
    <glyph glyph-name="tianjia" unicode="&#xe62c;" 
d="M164 336h696v-72h-696v72zM476 648h72v-696h-72v696z" />
    <glyph glyph-name="shanchu1" unicode="&#xe62b;" 
d="M810.5 632.5q-76.5 76.5 -179 103.5t-205 0t-179 -103.5t-103.5 -179t0 -205t103.5 -179t179 -103.5t205 0t179 103.5t104 179t0 205t-104 179zM785.5 95.5q-69.5 -69.5 -163 -94.5t-186.5 0t-162.5 94.5t-94 162.5t0 186.5t94 163t162.5 94t186.5 0t163 -94.5t94 -163
t0 -186t-94 -162.5zM694 539l23 -24l-352 -352l-23 24zM717 187l-23 -24l-341 341l24 23z" />
    <glyph glyph-name="gengduo" unicode="&#xe621;" 
d="M76 735q-13 0 -22.5 -9.5t-9.5 -23.5v-317q0 -13 9.5 -22.5t22.5 -9.5h347q13 0 22.5 9.5t9.5 22.5v317q0 14 -9.5 23.5t-22.5 9.5h-347zM76 241q-13 0 -22.5 -9.5t-9.5 -22.5v-317q0 -14 9.5 -23.5t22.5 -9.5h347q13 0 22.5 9.5t9.5 23.5v317q0 13 -9.5 22.5t-22.5 9.5
h-347zM600 241q-13 0 -22.5 -9.5t-9.5 -22.5v-317q0 -14 9.5 -23.5t22.5 -9.5h347q13 0 22.5 9.5t9.5 23.5v317q0 13 -9.5 22.5t-22.5 9.5h-347zM947 735h-347q-13 0 -22.5 -9.5t-9.5 -23.5v-317q0 -13 9.5 -22.5t22.5 -9.5h347q13 0 22.5 9.5t9.5 22.5v317q0 14 -9.5 23.5
t-22.5 9.5zM891 453q0 -7 -5.5 -12.5t-13.5 -5.5h-197q-8 0 -13 5.5t-5 12.5v181q0 8 5 13t13 5h197q8 0 13.5 -5t5.5 -13v-181z" />
    <glyph glyph-name="dianhua" unicode="&#xe613;" 
d="M512 703q82 0 157 -31q73 -31 128.5 -87t86.5 -128q32 -75 32 -157t-32 -157q-31 -73 -86.5 -128.5t-128.5 -86.5q-75 -32 -157 -32t-157 32q-72 31 -128 86.5t-87 128.5q-31 75 -31 157t31 157q31 72 87 128t128 87q75 31 157 31zM512 728q-116 0 -214.5 -57.5
t-156 -156t-57.5 -214.5t57.5 -215t156 -156t214.5 -57t215 57t156 156t57 215t-57 214.5t-156 156t-215 57.5v0zM463 244q9 -9 20.5 -18t19.5 -14l7 -5q1 -1 3.5 -2.5t10 -5.5t14.5 -5.5t16 -1t16 4.5q13 8 26 17t18 12.5t11.5 5.5t11 0.5t12.5 -5.5q27 -15 45.5 -29.5
t26 -24.5t12.5 -19.5t4 -14t-1 -7.5q-7 -27 -48 -41.5t-88 -2.5q-109 27 -187 105t-105 187q-12 47 2.5 88t41.5 48q3 0 7.5 1t14 -3.5t19.5 -12.5t24.5 -26.5t29.5 -44.5q5 -10 5 -17t-2 -11.5t-13 -21t-20 -30.5q-7 -14 -4.5 -27t8.5 -23l6 -10q17 -27 36 -46v0zM463 244z
" />
    <glyph glyph-name="xiaoxi" unicode="&#xe616;" 
d="M570 477q-1 0 -3 1.5t-3 1.5v-3h6zM637 478q-47 8 -88 -20q-15 -11 -64 -57q-47 -44 -83 -64q-48 -25 -91 -25q-5 0 -4 -4q1 -7 2 -8q6 -23 29 -39q8 -6 16 -4q20 4 22 5q49 17 87 63q47 58 79 88q56 52 102 60q1 2 0 3q-6 2 -7 2zM728 544q-11 0 -18.5 -8t-7.5 -19
t8 -18.5t19 -7.5t18.5 8t7.5 19t-8 18.5t-19 7.5zM510 748q-91 0 -173.5 -35t-142.5 -95t-95.5 -143t-35.5 -174t35.5 -174t95.5 -143t142.5 -95t173.5 -35t174 35t143 95t95.5 143t35.5 174t-35.5 174t-95.5 143t-143 95t-174 35zM459 23q-10 -30 -41 -37h-10.5h-9.5
q-31 9 -40 37q-9 31 16 54q4 4 8 1q38 -31 74 -48q5 -2 3 -7zM782 514q-1 -1 -1 -3v-2q-5 -20 -17.5 -30.5t-38.5 -14.5q7 -19 7 -20q16 -63 -13 -133q-21 -52 -64 -96q-26 -26 -38 -64q-4 -13 -9.5 -38t-8.5 -35q-5 -19 -12 -28q-15 -20 -51 -19q-41 2 -90 30
q-67 39 -130 112q-42 49 -62 97q-8 18 -13 47l-1 1v3.5t-1 3.5v1q2 5 0 9v2q1 0 1 3v3h1l1 3q4 29 31 39q11 4 52 12q48 10 69 19q7 3 14 8t11 8.5t12 11t10 9.5q60 53 125 68q34 8 65 5q21 -2 44 -11q3 44 44 54q0 1 2.5 1t3.5 1h12q16 0 31 -15t14 -31v-11z" />
    <glyph glyph-name="212102" unicode="&#xe609;" 
d="M512 21q-8 0 -15 3l-410 181q-15 6 -20.5 21t1 29.5t21 20t29.5 -0.5l394 -174l394 174q15 6 29.5 0.5t21 -20t1 -29.5t-20.5 -21l-409 -181q-8 -3 -16 -3zM512 322q-8 0 -15 3l-410 181q-15 6 -20.5 21t1 29.5t21 20t29.5 -0.5l394 -174l394 174q15 7 29.5 1t21 -20.5
t1 -29.5t-20.5 -21l-409 -181q-8 -3 -16 -3z" />
    <glyph glyph-name="2121021" unicode="&#xe60c;" 
d="M512 579q8 0 15 -3l410 -181q15 -6 20.5 -21t-1 -29.5t-21 -20t-29.5 0.5l-394 174l-394 -174q-15 -6 -29.5 -0.5t-21 20t-1 29.5t20.5 21l409 181q8 3 16 3zM512 278q8 0 15 -3l410 -181q15 -6 20.5 -21t-1 -29.5t-21 -20t-29.5 0.5l-394 174l-394 -174
q-15 -6 -29.5 -0.5t-21 20t-1 29.5t20.5 21l409 181q8 3 16 3z" />
    <glyph glyph-name="phone-line" unicode="&#xe6ed;" 
d="M900 115q6 -6 13 -11q29 -24 41 -38v0v0v0q3 -4 5 -6q2 -3 4 -4q0 -1 1 -2q1 -2 2 -3l6 -9v-1q15 -30 -4 -71q-18 -39 -57 -75q-81 -75 -154 -75q-11 0 -21 2q-74 9 -198 78q-133 73 -232.5 167.5t-176.5 220.5q-73 118 -83 189q-6 46 21 96q25 44 70 81q1 1 3 2.5t2 2.5
q42 34 75 46q17 8 32 8t30 -6v-1q5 -2 13 -6q35 -17 70 -64q23 -31 40 -59q21 -36 35 -68l1 -1l2 -7q14 -36 -14 -62q0 -1 -2 -3l-1 -1l-1 -1q-1 0 -3 -2q-4 -3 -5 -4h-1q-11 -8 -19 -12l-12 -8h-1q-11 -6 -32 -15q-19 -7 -31 -13q-11 -6 -14.5 -20.5t0.5 -19.5
q31 -68 122 -155q63 -60 157 -113q8 -5 17 -5q11 0 22 7.5t17 17.5q5 10 15 29l10 20v0q10 18 18 30q5 7 8 10q11 16 30 22q10 4 22 4q16 0 27 -6l21 -10v0q1 -1 4 -3q5 -2 10 -6q16 -10 33 -21q3 -2 7 -5zM720 153q-6 -7 -20 -32q-3 -5 -10 -18q-10 -20 -16 -31
q-10 -18 -30.5 -32t-43.5 -14q-20 0 -37 10q-98 56 -165 119q-97 92 -131 168q-10 22 -3 48q9 32 36 46q14 6 34 14q18 7 26 12t14 9q7 3 16 9l2 2q3 2 4 3l2 2v0q8 8 4 18l-1 1l-2 7q-13 30 -32 62q-16 26 -38 55q-28 39 -54 52h-1l-12 6q-6 3 -13 3t-17 -4l-1 -1
q-26 -9 -63 -40q-4 -3 -5 -4q-39 -32 -60 -70.5t-16 -69.5q9 -63 77 -174q74 -121 170 -211.5t224 -161.5q117 -65 183 -74q8 -1 16 -1q57 0 127 65q33 30 47 61q5 10 6 21t-2 16l-4 5v0v1q-3 3 -8 9q-11 12 -36 33q-40 33 -73 55q-26 17 -43 28l-20 9q-3 2 -9 2q-5 0 -9 -1
q-7 -3 -10 -8z" />
    <glyph glyph-name="nan" unicode="&#xe640;" 
d="M582 621v-59h122l-1 -1l-118 -127q-46 32 -103.5 40t-114.5 -11t-97 -63q-68 -73 -64 -173.5t77 -168.5t172.5 -64t167.5 78q64 68 66.5 156.5t-58.5 162.5l126 135v-138h58v233h-233zM579 113q-50 -54 -124 -56.5t-128 47.5t-57 124t47.5 128t124 56.5t127.5 -47.5
t57 -124t-47 -128z" />
    <glyph glyph-name="tianjia1" unicode="&#xe633;" 
d="M180 354h708v-111h-708v111zM478 653h112v-708h-112v708z" />
    <glyph glyph-name="tianjia2" unicode="&#xe61c;" 
d="M512 761q-94 0 -179 -36.5t-147 -98.5t-98.5 -147t-36.5 -179q0 -149 89 -271l35 36q-74 106 -74 235q0 112 55 206.5t149.5 149.5t206.5 55t206.5 -55t149.5 -149.5t55 -206.5t-55 -206.5t-149.5 -149.5t-206.5 -55q-128 0 -233 72l-31 -38q119 -84 264 -84
q94 0 179 36.5t147 98.5t98.5 147t36.5 179t-36.5 179t-98.5 147t-147 98.5t-179 36.5v0zM496 530v-214h-214v-49h214v-214h49v214h214v49h-214v214h-49zM496 530z" />
    <glyph glyph-name="bianji" unicode="&#xe661;" horiz-adv-x="1025" 
d="M928 204q-14 0 -22 -8t-8 -16l-1 -8v-256q0 -26 -19 -45t-45 -19h-703q-27 0 -46 19t-19 45v640q0 26 19 45t46 19h382q4 0 9 1t14 9t9 22t-8 22t-16 9l-8 1h-384q-53 0 -90.5 -37.5t-37.5 -90.5v-640q0 -53 37.5 -90.5t90.5 -37.5h704q53 0 90.5 37.5t37.5 90.5v256
q0 4 -1 9t-9 14t-22 9zM992 740l-109 63q-24 14 -49.5 7t-38.5 -30l-369 -638q-6 -11 -8.5 -28t-0.5 -30q27 -126 41 -144q22 -3 144 37q12 4 26 15t20 22l368 638q14 23 7 48.5t-31 39.5zM590 41q-78 -28 -91 -29q-2 5 -7.5 28.5t-9 44l-3.5 20.5l51 89l111 -64zM673 185
l-111 64l224 388l111 -64zM929 629l-111 64l32 55l111 -64z" />
    <glyph glyph-name="jingdian" unicode="&#xe696;" 
d="M992 -165h-96q0 24 -18.5 41t-45.5 17v523h128q23 0 30.5 22t-11.5 36l-448 320q-19 13 -38 0l-448 -320q-19 -14 -11.5 -36t30.5 -22h128v-523q-26 0 -45 -17t-19 -41h-96q-13 0 -22.5 -9t-9.5 -21t9.5 -20.5t22.5 -8.5h960q13 0 22.5 8.5t9.5 20.5t-9.5 21t-22.5 9z
M448 -107h-128v523h128v-523zM704 -107h-128v523h128v-523z" />
    <glyph glyph-name="shijian" unicode="&#xe62a;" 
d="M512 -212q-104 0 -199 40.5t-163.5 109t-109 163.5t-40.5 199t40.5 199t109 163.5t163.5 109t199 40.5t199 -40.5t163.5 -109t109 -163.5t40.5 -199t-40.5 -199t-109 -163.5t-163.5 -109t-199 -40.5zM512 752q-92 0 -175.5 -36t-144 -96.5t-96.5 -144t-36 -175.5
t36 -175.5t96.5 -144t144 -96.5t175.5 -36t175.5 36t144 96.5t96.5 144t36 175.5t-36 175.5t-96.5 144t-144 96.5t-175.5 36zM480 236q-13 0 -22.5 11t-9.5 26v374q0 15 9.5 26t22.5 11t22.5 -11t9.5 -26v-374q0 -15 -9.5 -26t-22.5 -11zM859 236h-374q-15 0 -26 9.5
t-11 22.5t11 22.5t26 9.5h374q15 0 26 -9.5t11 -22.5t-11 -22.5t-26 -9.5z" />
    <glyph glyph-name="shenfengzheng4" unicode="&#xe60f;" 
d="M293 399q22 -22 53 -22t53 22t22 53t-22 53t-53 22q-17 0 -33 -8q-11 -5 -20 -14q-22 -22 -22 -53q0 -20 10 -37q5 -9 12 -16zM346 348h-3q-52 -1 -92.5 -31t-52.5 -76q-5 -16 -5 -34h305q0 58 -44.5 99.5t-107.5 41.5zM923 644h-825q-14 0 -24.5 -10.5t-10.5 -25.5v-613
q0 -15 10.5 -26t24.5 -11h825q15 0 25 11t10 26v613q0 15 -10 25.5t-25 10.5zM897 46q0 -13 -9 -21.5t-22 -8.5h-711q-13 0 -21.5 8.5t-8.5 21.5v511q0 12 8.5 21t21.5 9h711q13 0 22 -9t9 -21v-511zM535 423h286v-56h-286v56zM535 315h286v-56h-286v56zM193 140h631v-56
h-631v56z" />
    <glyph glyph-name="nan1" unicode="&#xe682;" 
d="M954 742q-6 6 -15 5h-10v0v0l-257 1q-8 0 -14 -6t-7 -15v-14q2 -10 8.5 -15.5t15.5 -5.5h188l-224 -223q-97 82 -224 82q-95 0 -175.5 -47t-127.5 -127.5t-47 -175.5t47 -175t127.5 -127t175.5 -47t175.5 47t127 127t46.5 175q0 131 -85 229l224 223l-1 -191
q0 -9 6 -15.5t14 -5.5h15q9 0 14.5 5t6.5 13v258h-0.5h-0.5l2 10q0 10 -5 15zM415 -93q-122 0 -208 86.5t-86 208t86 207.5t208 86t208 -86t86 -207.5t-86 -208t-208 -86.5z" />
    <glyph glyph-name="back" unicode="&#xe6e3;" 
d="M512 800q-138 0 -256 -69t-187 -187t-69 -256t69 -256t187 -187t256 -69t256 69t187 187t69 256t-69 256t-187 187t-256 69zM646 70q5 -4 5 -12t-5 -13q-2 -3 -4 -6.5t-4 -5t-4 -1.5q-13 0 -13 6l-250 250l250 250q5 4 13 4t12.5 -4.5t4.5 -12.5t-5 -13l-217 -224z" />
    <glyph glyph-name="shouji" unicode="&#xe694;" 
d="M752 -212h-480q-53 0 -89.5 37.5t-36.5 88.5v768q0 54 36.5 92t89.5 38h480q53 0 89.5 -37.5t36.5 -88.5v-768q0 -54 -36.5 -92t-89.5 -38v0v0zM815 682q0 27 -18 45t-45 18h-480q-27 0 -45 -18t-18 -45v-31h606v31v0v0zM815 588h-606v-512h606v512v0v0zM815 12h-606v-94
q0 -27 18 -45t45 -18h480q27 0 45 18t18 45v94v0v0zM512 -117q-21 0 -34 13t-13 33.5t13 34t34 13.5t34 -13.5t13 -34t-13 -33.5t-34 -13v0v0zM512 -117z" />
    <glyph glyph-name="youxiang" unicode="&#xe6fb;" 
d="M19 634v-668h986v668h-986zM877 570l-366 -282l-366 282h732zM83 30v507l428 -329l430 331v-509h-858z" />
    <glyph glyph-name="shanchu" unicode="&#xe648;" 
d="M423 -31v501q0 14 -9.5 26t-14.5 12q-15 0 -26 -11t-11 -27v-501q0 -29 37 -29q2 0 7 4t11 11t6 14v0zM362 751h301q13 0 20 1t13 6t6 15q0 16 -11 27t-27 11h-302q-16 0 -27 -11t-11 -27q0 -14 9.5 -18t28.5 -4v0zM853 546q-30 0 -30 -36v-541q0 -25 -1 -40.5
t-5.5 -32.5t-13 -26t-23.5 -15t-37 -6h-441q-58 0 -79 23t-21 77v541q0 20 -7.5 38t-21.5 18t-22.5 -18.5t-8.5 -37.5v-140v-481q0 -33 19 -56.5t50 -23.5h604q30 0 49.5 23.5t19.5 56.5v501v140q0 36 -31 36v0zM964 691h-902q-17 0 -28.5 -8t-11.5 -23t14 -23t31 -8h891
q18 0 32 8t14 23t-11.5 23t-28.5 8v0zM663 -31v501q0 16 -10.5 27t-26.5 11q-7 0 -15 -11.5t-8 -26.5v-501q0 -11 22 -26q4 -3 1 -3q37 0 37 29v0zM663 -31z" />
    <glyph glyph-name="lianxiren" unicode="&#xe643;" 
d="M676 145q8 10 6 23t-12 20q-51 39 -110 58q66 33 106.5 96.5t40.5 140.5q0 109 -77.5 186.5t-187 77.5t-187 -77.5t-77.5 -186.5q0 -77 40.5 -140.5t106.5 -96.5q-114 -37 -186.5 -135.5t-72.5 -222.5q0 -13 9 -22t22 -9t22 9t9 22q0 130 92 222.5t222 92.5
q106 0 190 -64q11 -8 23.5 -6t20.5 12zM240 483q0 84 59.5 143t143 59t142.5 -59t59 -143t-59 -143t-142.5 -59t-143 59t-59.5 143zM548 87q0 -13 9.5 -22t22.5 -9h348q12 0 21.5 9t9.5 22t-9.5 22.5t-21.5 9.5h-348q-13 0 -22.5 -9.5t-9.5 -22.5zM928 17h-348
q-13 0 -22.5 -9t-9.5 -22t9.5 -22t22.5 -9h348q12 0 21.5 9t9.5 22t-9.5 22t-21.5 9zM928 -84h-348q-13 0 -22.5 -9t-9.5 -22t9.5 -22t22.5 -9h348q12 0 21.5 9t9.5 22t-9.5 22t-21.5 9z" />
    <glyph glyph-name="weixinzhifu" unicode="&#xe62d;" 
d="M390 265q-17 -10 -30.5 -11.5t-20.5 3.5t-12 10.5t-6 11.5l-1 5l-77 178q-19 56 4 51q9 -2 22 -12q47 -36 83 -58q16 -9 35 -10.5t30 1.5l12 3l502 231q-71 88 -181.5 139t-237.5 51q-104 0 -199 -35.5t-163.5 -95.5t-109 -142.5t-40.5 -173.5q0 -104 52 -195.5
t142 -153.5l-21 -122q-1 -2 -1 -4t-0.5 -7.5t2 -8t8 -4t16.5 4.5q29 13 125 76q91 -32 189 -32q104 0 198.5 35.5t163.5 95t109.5 142.5t40.5 173q0 105 -54 199q-528 -316 -580 -345v0v0zM390 265z" />
    <glyph glyph-name="jiantou" unicode="&#xe620;" 
d="M980 174h-943q-9 0 -15.5 6.5t-6.5 16t6.5 16t15.5 6.5h889l-192 192q-6 15 8 26q7 5 13.5 4.5t10.5 -2.5l5 -2l224 -225q11 -10 5.5 -24t-20.5 -14v0zM980 174z" />
    <glyph glyph-name="nv" unicode="&#xe608;" 
d="M627 781q-115 0 -198 -83.5t-83 -198.5q0 -104 64 -179v0l-128 -128l-122 122q-19 19 -38.5 -0.5t0.5 -38.5l121 -121l-121 -122q-20 -19 0 -38q6 -7 19 -7t19 7l122 121l121 -115q7 -6 19.5 -6t19.5 6q19 19 0 38l-122 116l122 121v0q85 -64 179 -64q115 0 198 83.5
t83 198.5q5 119 -77 203.5t-198 84.5zM627 269q-96 0 -163 67t-67 163t67 163.5t163 67.5t163.5 -67.5t67.5 -163.5q0 -95 -69 -162.5t-162 -67.5z" />
    <glyph glyph-name="jiantou-copy" unicode="&#xe61f;" 
d="M300 405l-0.5 -1t-0.5 -2q-7 -13 -4.5 -28t13.5 -26l344 -325q14 -13 33 -12.5t32.5 14.5t13 33.5t-14.5 32.5l-309 292l308 296q14 13 14 32.5t-13 33.5q-14 14 -34 14q-19 0 -32 -13l-341 -328l-0.5 -1t-1 -1.5l-1.5 -1.5t-6 -9v0zM300 405z" />
    <glyph glyph-name="cheliangguanli" unicode="&#xe850;" 
d="M868 533l-116 141h-482l-116 -141l-76 -81l6 -53h-20v-305h159v66h578v-66h159v305h-21l5 53l-76 81v0zM141 420l199 -54l6 -30h-187l-18 84v0zM244 288h522l-16 -68h-490l-16 68v0zM882 420l-18 -84h-186l6 30l198 54v0zM227 534l73 96h422l74 -96q-283 2 -569 0z" />
    <glyph glyph-name="jilu" unicode="&#xe7af;" 
d="M525 892q-13 9 -26 0q-11 -9 -28 -22.5t-58 -50.5t-79 -76t-82.5 -95.5t-77 -112t-54.5 -122t-22 -127.5q0 -112 55.5 -207.5t151 -151t207.5 -55.5t207.5 55.5t151 151t55.5 207.5q0 61 -22 127.5t-54.5 122t-77 112t-82.5 95.5t-79 76t-58 50.5t-28 22.5zM512 -85
q-101 0 -186.5 49.5t-135 135t-49.5 186.5q0 71 33 150t77 140t102.5 123.5t93 93t65.5 55.5q31 -25 65.5 -55.5t93 -93t102.5 -123.5t77 -140t33 -150q0 -101 -49.5 -186.5t-135 -135t-186.5 -49.5zM782 393h-147q-13 0 -19 -12l-47 -94l-61 261q-3 15 -18.5 16.5
t-21.5 -12.5l-68 -159h-158q-9 0 -15 -6t-6 -15t6 -15.5t15 -6.5h172q14 0 19 13l48 112l59 -255q4 -15 19 -17h2q13 0 19 12l68 135h134q9 0 15 6.5t6 15.5t-6 15t-15 6z" />
    <glyph glyph-name="xuanzhong" unicode="&#xe623;" 
d="M512 896q-104 0 -199 -40.5t-163.5 -109t-109 -163.5t-40.5 -199t40.5 -199t109 -163.5t163.5 -109t199 -40.5t199 40.5t163.5 109t109 163.5t40.5 199t-40.5 199t-109 163.5t-163.5 109t-199 40.5zM512 -57q-90 0 -171.5 35t-140.5 94t-94 140.5t-35 171.5t35 171.5
t94 140.5t140.5 94t171.5 35t171.5 -35t140.5 -94t94 -140.5t35 -171.5t-35 -171.5t-94 -140.5t-140.5 -94t-171.5 -35z" />
    <glyph glyph-name="wodeguwen" unicode="&#xe622;" 
d="M323 713q0 74 -53.5 126t-128.5 52t-128.5 -52.5t-53.5 -126.5t53.5 -126.5t128.5 -52.5t128.5 52.5t53.5 126.5v1zM657 518q-12 0 -22 -8q-55 -45 -127 -45t-127 45q-10 8 -22 7q-121 -8 -196.5 -97t-75.5 -216v-302q0 -12 9 -21t22 -9h97q12 0 21 9t9 21v301
q0 13 9 21.5t21.5 8.5t21 -8.5t8.5 -21.5v-301q0 -12 9 -21t22 -9h346q13 0 22 9t9 21v301q0 13 8.5 21.5t21 8.5t21.5 -8.5t9 -21.5v-301q0 -12 9 -21t21 -9h97q13 0 21.5 9t8.5 21v302q0 127 -75.5 216.5t-197.5 97.5z" />
    <glyph glyph-name="fenlei" unicode="&#xe610;" horiz-adv-x="1025" 
d="M334 674h587q23 0 32.5 16.5t0 33.5t-32.5 17h-587q-22 0 -31.5 -17t-0.5 -33.5t32 -16.5zM125.5 767q-25.5 0 -43.5 -18t-18 -43.5t18 -43t43.5 -17.5t43.5 17.5t18 43t-18 43.5t-43.5 18zM921 418h-587q-22 0 -31.5 -16.5t-0.5 -33t32 -16.5h587q23 0 32.5 16.5t0 33
t-32.5 16.5zM125.5 445q-25.5 0 -43.5 -18t-18 -43.5t18 -43.5t43.5 -18t43.5 18t18 43.5t-18 43.5t-43.5 18zM921 96h-587q-22 0 -31.5 -16.5t-0.5 -33t32 -16.5h587q23 0 32.5 16.5t0 33t-32.5 16.5zM125.5 123q-25.5 0 -43.5 -18t-18 -43.5t18 -43.5t43.5 -18t43.5 18
t18 43.5t-18 43.5t-43.5 18z" />
    <glyph glyph-name="zhoubianicon" unicode="&#xe624;" 
d="M511.5 369q-44.5 0 -76 31t-31.5 75.5t31.5 75.5t76 31t75.5 -31t31 -75.5t-31 -75.5t-75.5 -31zM508.5 896q-80.5 0 -156 -31t-135.5 -90q-79 -79 -107 -185.5t0 -213t107 -185.5l298 -298l292 292q79 79 107 185.5t0 212.5t-107 186l-7 6q-59 59 -135 90t-156.5 31z
M511.5 297q73.5 0 126 52.5t52.5 126t-52.5 126t-126.5 52.5t-126 -52.5t-52 -126t52.5 -126t126 -52.5zM509 896v-71q141 0 241 -100l6 -7q100 -100 100 -241.5t-100 -241.5l-241 -241l-247 248q-100 100 -100 241.5t100 241.5t241 100v71v0z" />
    <glyph glyph-name="huiyuan" unicode="&#xe629;" 
d="M916 -23q0 -17 -12 -28.5t-28 -12.5q-15 0 -25.5 11t-13.5 19.5t-3 10.5q-15 119 -103.5 200t-208.5 85h-4.5h-5.5h-5.5h-5.5q-120 -4 -208.5 -85t-102.5 -200q-1 -1 -1.5 -4t-3 -10t-6.5 -12.5t-12.5 -10t-18.5 -4.5q-17 0 -29 12t-12 29q1 14 3 19q15 106 80 190
t161 125q-57 39 -90.5 101t-33.5 134q0 118 83.5 201t201 83t201 -83t83.5 -201q0 -72 -33.5 -134t-90.5 -101q97 -42 162.5 -127t79.5 -192q2 -6 2 -11v-4zM715 546q0 84 -59.5 143.5t-144 59.5t-144 -59.5t-59.5 -143.5t59.5 -143.5t144 -59.5t144 59.5t59.5 143.5v0v0z
M715 546z" />
    <glyph glyph-name="iconfontjianjie" unicode="&#xe63a;" 
d="M765 755h-506q-32 0 -54.5 -22.5t-22.5 -54.5v-588q0 -32 22.5 -54.5t54.5 -22.5h506q32 0 54.5 22.5t22.5 54.5v588q0 32 -22.5 54.5t-54.5 22.5v0zM798 90q0 -14 -9.5 -23.5t-23.5 -9.5h-506q-14 0 -23.5 9.5t-9.5 23.5v588q0 14 9.5 23.5t23.5 9.5h506q14 0 23.5 -9.5
t9.5 -23.5v-588v0zM289 556h69v-44h-69v44v0zM289 407h69v-44h-69v44v0zM289 258h69v-44h-69v44v0zM396 556h339v-44h-339v44v0zM396 407h339v-44h-339v44v0zM396 259h339v-44h-339v44v0zM318 648z" />
    <glyph glyph-name="xuanzhong1" unicode="&#xe617;" 
d="M512 896q-213 0 -362.5 -149.5t-149.5 -362.5t149.5 -362.5t362.5 -149.5t362.5 149.5t149.5 362.5t-149.5 362.5t-362.5 149.5zM768 452l-245 -244l-45 -46q-12 -11 -23 -11t-23 11l-45 46l-120 119q-11 11 -11 22.5t11 23.5l46 45q11 12 22.5 12t22.5 -12l97 -97
l222 222q11 12 22.5 12t22.5 -12l46 -45q11 -12 11 -23q-2 -3 -3.5 -5.5t-3.5 -8t-4 -9.5z" />
    <glyph glyph-name="tixian" unicode="&#xe635;" horiz-adv-x="1332" 
d="M520 144v87l72 72l-72 71v87l115 -115v0l44 -43l-44 -44v0zM307 339h311v-72h-311v72zM1263 425h-237q-28 0 -48 -20t-20 -48v-117q0 -28 20 -48t48 -20h237q28 0 48 20t20 48v117q0 28 -20 48t-48 20zM1293 267q0 -23 -16 -38.5t-38 -15.5h-189q-23 0 -39 15.5t-16 38.5
v69q0 22 16 38t39 16h189q22 0 38 -16t16 -38v-69zM1038 303q0 15 10.5 25.5t25.5 10.5t25.5 -10.5t10.5 -25.5t-10.5 -25.5t-25.5 -10.5t-25.5 10.5t-10.5 25.5zM958 896l-547 -176v-44h42l469 151l49 -151h58zM508 4q-24 0 -40.5 16.5t-16.5 40.5v47h-27v-63q0 -28 20 -48
t48 -20h131v27h-115zM1206 36q0 -49 -29.5 -80.5t-77.5 -31.5l-622 -2q-49 0 -80.5 32.5t-31.5 81.5l-1 132v0v45h-57v-120v-84q0 -57 40 -97t96 -40h683q57 0 96.5 40t39.5 97v163h-56v-136zM1126 725h-683q-56 0 -96 -40t-40 -96v-204h57v183q0 48 30.5 78t79.5 30h628
q48 0 75.5 -31t27.5 -80l1 -140h56v164q0 56 -39.5 96t-96.5 40z" />
    <glyph glyph-name="nv1" unicode="&#xe646;" 
d="M365 -96q-19 0 -26 6l-237 237q-9 10 -9 22.5t9.5 22.5t22.5 10t22 -10l237 -230q10 -10 10 -23t-10 -22q-6 -13 -19 -13zM128 -96q-5 0 -13 4t-13 9q-9 9 -9 22t9 23l154 147q58 58 134.5 75t153.5 -11q74 -21 141 -13q91 14 156.5 80t80.5 157q20 155 -84 249
q-48 48 -115 70.5t-134 13.5q-85 -10 -150.5 -76.5t-80.5 -154.5q-19 -88 20 -166q8 -26 -20 -45q-10 -5 -21.5 0t-16.5 19q-43 108 -26 205q20 108 100 187.5t188 94.5q85 14 164.5 -12t143.5 -84q61 -62 85.5 -141t10.5 -167q-20 -111 -99.5 -192t-188.5 -96
q-101 -11 -173 13q-58 19 -116.5 5.5t-101.5 -56.5l-153 -147q-7 -13 -26 -13z" />
    <glyph glyph-name="jiantou-copy2" unicode="&#xe60a;" 
d="M958 575l-63 64l-384 -381l-380 384l-64 -63l444 -449z" />
    <glyph glyph-name="paixu" unicode="&#xe61e;" 
d="M197 68q10 -11 25 -10q16 -1 26 10l185 185q10 10 10 24.5t-10.5 25t-25 10.5t-25.5 -10l-124 -124v717h-71v-717l-124 124q-11 10 -25.5 10t-25 -10.5t-10.5 -25t10 -25.5zM2 -57h1020v-71h-1020v71zM548 263h474v-71h-474v71zM737 578h285v-71h-285v71zM832 894h190
v-71h-190v71z" />
    <glyph glyph-name="nicheng" unicode="&#xe6b9;" 
d="M512 625q50 0 85 -35.5t35 -85.5q0 -58 -45 -94q-27 -21 -22.5 -55t36.5 -48q55 -23 78 -74h-334q23 51 78 74q32 14 36.5 48t-22.5 55q-45 36 -45 94q0 50 35 85.5t85 35.5zM512 685q-75 0 -128 -53t-53 -128q0 -42 18.5 -79t50.5 -62q-57 -24 -91.5 -72.5t-37.5 -117.5
h482q-3 69 -37.5 117.5t-91.5 72.5q32 25 50.5 62t18.5 79q0 75 -53 128t-128 53v0zM512 791q114 0 211.5 -56.5t154 -154t56.5 -211.5t-56.5 -211.5t-154 -154t-211.5 -56.5t-211.5 56.5t-154 154t-56.5 211.5t56.5 211.5t154 154t211.5 56.5zM512 851q-98 0 -187.5 -38
t-154 -102.5t-102.5 -154t-38 -187.5t38 -187.5t102.5 -154t154 -102.5t187.5 -38t187.5 38t154 102.5t102.5 154t38 187.5t-38 187.5t-102.5 154t-154 102.5t-187.5 38v0zM422 113h-61v-60h61v60zM663 113h-61v-60h61v60zM542 113h-60v-60h60v60z" />
    <glyph glyph-name="shouyeguoneigongyingshang0101" unicode="&#xe619;" 
d="M1005 701v1q-10 -3 -25 -14t-26 -15q-11 9 -14 22h-2q-4 0 -9.5 3t-8.5 4q-3 -2 -10 -2q-3 0 -7.5 0.5t-7.5 0.5h-1q-2 3 -11.5 20t-18 27.5t-17 14.5t-21.5 4q-18 0 -35 -7.5t-20 -18.5q4 -1 8 -1q6 -6 -6.5 -34.5t-30.5 -28.5q-5 0 -10 2q-6 -7 -13 -40q3 -3 6 -5
q7 5 12 5q4 0 9 -4l4 4l3 3t3.5 2t6.5 1q3 -2 12 -8.5t13 -12.5v-4q-6 -1 -14.5 -2t-13.5 -2t-11 -3t-10 -6q-3 -2 -6 -9.5t-7 -9.5q-8 -1 -14 -2q-4 -1 -16 -15q-7 0 -15 2t-13 3q-4 -4 -8 -17l3.5 -3.5t3 -4t2.5 -3.5q-19 -24 -39 -30q-7 -2 -18 -2h-6h-6q-11 0 -17 -2
q-2 -1 -7.5 -5t-11.5 -6.5t-10 -2.5h-4q-73 28 -136 29q-3 12 -8.5 21t-15.5 15.5t-16 9t-22 8t-21 7.5q-1 6 3.5 22.5t-2.5 27.5q-3 6 -18.5 14t-15.5 23h-14q-3 -2 -4 -9q-4 0 -9.5 -1t-8.5 -2q-1 -5 -3 -12.5t-3 -11.5q-3 -1 -5 -1q-7 0 -19 4t-14 4q-20 -17 -19 -35
q-21 3 -36 3h-3q0 -1 -1 -1q3 -10 2 -39q-6 -1 -12 -10.5t-12 -11.5q-15 -3 -26 -5q0 1 -2 2.5t-4 1.5h-1q-8 -2 -19.5 -7.5t-20.5 -8.5q-1 4 -3 7q-1 2 -6 2q-2 0 -25 -5q-2 -2 -4.5 -7t-5 -9t-5.5 -7q4 -6 11 -6q2 0 4 -1q2 -4 1.5 -13.5t0.5 -13.5q-2 0 -6.5 -1.5
t-5.5 -1.5q10 -9 19 -16q1 -7 -2 -13q18 -18 32 -20v-19q2 -1 6 -4t6 -4v-1q-6 -6 -7.5 -9.5t0 -12.5t1.5 -14q-1 -1 -3 -2t-3 -1q-4 2 -8 5h-1q-4 -13 0 -32q27 -14 34 -28h3t4 1.5t6 1.5q7 -6 23.5 -23t26.5 -25.5t27.5 -16.5t37.5 -8q5 0 10 1q3 -6 0 -12q1 -2 4 -6
q4 10 14 16q8 0 17 -3.5t16 -3.5h2q1 -1 3.5 -5t4 -6t2.5 -5t0 -6q8 -6 18 -6q12 0 31.5 11t23.5 12q2 1 5 1q6 0 15.5 -6t9.5 -7q7 11 10 15h2l9 -6q2 -8 3 -15q1 0 3.5 0.5t3.5 0.5q4 -20 -3 -33q0 -5 -9 -9.5t-11 -7.5q-3 -5 -3 -12v-9l0.5 -1t0.5 -2q11 3 15 3q2 0 5 -1
q1 -2 2 -9t2 -10q7 -2 12 -4q-8 -15 -8 -16q4 -3 11 -3h3l2 -4l2 -4t4 -3q2 -2 6 -2q2 0 12 5l2 -8q5 -2 12 -4q1 10 -2 22v1q12 6 22 6q3 0 4 -2h5q3 0 4 5q11 -2 13 -5q5 2 12.5 5.5t12.5 5t10 1.5q10 0 24 -6h2q-1 -8 0 -18q5 0 15 -3.5t17 -4.5q4 3 6 6q13 -2 14 -7
q6 0 10 5q5 -3 7 -7q-3 -2 -4 -7q4 -7 7 -13q1 0 3 -0.5l2 -0.5q2 0 4 2q0 2 -0.5 3t-1.5 4l-2 6h6l-2 1q2 7 29 15t29 10q1 0 6 -5q1 2 1.5 4t-0.5 6.5t-1 7.5q0 1 1 1q5 -1 6 -2q1 -2 -1 -7q4 -2 9 -2h5q0 8 3 14q2 -2 6 -2q16 0 36 14t23 30q3 2 8.5 5.5t9 7t4.5 8.5
q2 2 7 3q1 20 -2 22v3q4 -1 5 -2q12 10 17 38h3l4 -1q1 0 2 1.5t2 2.5q-2 7 -4 16q1 1 3 1.5t3 1.5l1 1t1 2q-2 3 -5 4q1 4 3 7q-11 1 -13 6q-11 -4 -12 -4q-1 1 -1 3q7 10 16 13q0 1 1.5 2.5t1.5 2.5q-5 5 -18 11v4q7 -1 15 -1v1q-6 3 -11.5 8.5t-10.5 7.5q-2 4 -8 15
t-11.5 15.5t-16.5 7.5q-1 3 -3 7l5 7.5t5.5 9t2.5 9.5h2t2 -0.5t4 -0.5q5 7 3 12q4 1 11 5t10 4q2 0 4 -1q2 8 3 13q-5 -1 -11 -1q-4 0 -24 5q-9 -6 -15 -18h-5q-4 0 -10 1q-1 7 -1 14q-3 2 -7 2q-1 0 -10 -2l-3.5 3.5t-3 4.5t-2.5 3q0 10 5.5 12.5t17.5 3.5q22 34 30 39
q6 1 11 3l8 -8q-1 -5 -5 -10.5t-4 -9.5v-2.5t1 -1.5q2 0 3 -1q-1 -3 -5 -8v-5h1q5 3 11 10t10 10q3 3 10.5 4.5t11.5 4.5q5 2 19.5 22t16.5 27q15 -3 17 -3h8q-1 6 -3 12q21 7 23 26q6 -2 12 -5q0 5 4 7q2 0 2 1q1 7 -0.5 13t-5.5 14.5t-4 11.5l3 4t4 6q5 2 16 2h5
q1 2 2.5 12t2.5 15q-1 11 -2 23q3 4 6 7q0 3 -2.5 7.5t-1.5 8.5zM922 604q-3 -5 -6 -11l-6 -4q-28 -6 -38 -31q-1 -3 -4 -7q-13 7 -27 7q-7 0 -15 -2l-10 -3q-7 -2 -12 -6q-15 -9 -35 -36q-44 -14 -43 -62q0 -18 11 -31l4 -6l5 -5q7 -10 19 -15q1 -2 2 -3q-3 -17 4 -33l2 -3
l2 -4q9 -18 28 -25l1 -1q5 -9 8 -15q1 -3 1 -6q-5 -17 0 -33l1 -2v-1q3 -9 9 -17q-1 -1 -3 -2q-18 -16 -18 -39v-3q-6 -4 -11 -8q-10 -10 -14 -23q-4 -4 -10 -7q-3 1 -6 1q-9 0 -16 -3h-6q-21 0 -36 -15h-1v-1q-4 -4 -7 -9q-13 -3 -21 -6q-9 4 -19 4h-7l-8 2v0h-7q-1 1 -1 2
q-11 13 -28 17q-19 7 -37 7t-37 -8h-3q-4 1 -8 1q-8 0 -16 -3q-13 0 -27 -5q-1 2 -3 3q0 1 -1 2q2 3 3 6q10 27 4 59q-3 14 -14 25q-6 13 -19 21l-4 3l-5 3q-12 8 -27 8h-2q-9 0 -18 -4q-9 2 -17 2q-10 0 -20 -3q-11 -3 -28 -13q-15 19 -39 20q-17 7 -34 7h-2h-6q-6 2 -12 2
q-2 0 -4 -1h-6q-14 0 -26 8q-9 6 -30 28l-25 25q-7 5 -15 9v9v9q6 12 6 25v1q0 19 -13 33q-3 30 -31 41q-1 6 -4 11q9 3 21 9q3 -1 6 -1q4 0 9 1l14 3l12 1l6 2q22 7 37 28q17 11 22 30q13 3 22 12q8 6 12 15q3 -1 6 -1q6 0 11 1q9 1 17 6q0 -8 2 -15q5 -29 32 -39
q8 -3 21 -7q21 -7 26 -11q3 -1 4 -7q4 -17 17.5 -28t31.5 -11q54 -1 118 -25q11 -4 23 -4q21 0 47 16h4h7q18 0 32 4q36 11 66 48l4 6q12 5 20 14q10 2 18 7q14 8 23 23h3q12 2 19 3q18 3 30 17.5t12 32.5v4q0 18 -11 32q-7 8 -16 16l8 14q5 13 8 25q4 -6 12 -19.5t12 -19.5
q15 -22 42 -22h1v0q2 0 5 -1h7q8 -10 16 -16q-5 -15 -1 -29zM895 185q-2 -5 -8.5 -14.5t-9 -14.5t-4 -12.5t3.5 -14t16 -12.5l3 9t4.5 14t3.5 13.5t1.5 15t-2.5 11.5q-2 3 -8 5zM673 56h-3q-5 -3 -13 -5.5t-12.5 -5.5t-9.5 -9q2 -7 3 -13q3 -1 10 -3t10 -2q15 9 31 31
q-1 2 -1 3q-6 4 -15 4zM912 512v1v0v2h-1v0q-2 1 -5 0t-2 -6v-0.5v-0.5v-3h1v-2h0.5t0.5 -1h-1q0 -1 -0.5 -1.5t-1.5 -0.5t-2 -0.5t-2 -0.5l-2 -2v-1.5v-2.5h5v1v2v0v0q1 2 4 3l1 1h2q2 1 3 2v0h-1q0 1 0.5 1t0.5 0.5v1v0.5h0.5t0.5 0.5v1.5v0q-1 1 -1 4v1zM940 499
l-1.5 0.5l-1.5 0.5h-0.5t-1 0.5t-0.5 1.5h-1q0 1 0.5 1t0.5 0.5v1v0.5l0.5 0.5l0.5 0.5v1v1.5v0.5v1v1v3l-1 1h-1v0q-2 1 -5 0q-1 0 -2 -1v-1v0v0h1v-4q0 -1 -1 -1v-1v-2h1v-2h0.5t0.5 -1h-1v0q1 -1 3 -2h2q0 -1 1 -1q3 -1 4 -3v0v0v-2v-1h5v2.5v1.5z" />
    <glyph glyph-name="jiantou-copy-copy-copy" unicode="&#xe669;" 
d="M96 224l416 416l416 -416l-64 -63l-352 352l-352 -352z" />
    <glyph glyph-name="xinxi" unicode="&#xe605;" 
d="M514 813q-123 0 -227 -52.5t-164.5 -143t-60.5 -197.5q0 -94 47.5 -175.5t129.5 -136.5v-165l148 100q62 -16 127 -16q123 0 227 52.5t164.5 143t60.5 197.5t-60.5 197.5t-164.5 143t-227 52.5zM514 67q-72 0 -140 20l-35 -29l1 -0.5l1 -0.5l-62 -44l-1 81v36
q-81 49 -128.5 125t-47.5 165q0 96 55 177.5t150 128.5t207 47.5t207 -47t150 -129t55 -177.5t-55 -177.5t-150 -128.5t-207 -47zM285 422zM232 421.5q0 21.5 15.5 37t37 15.5t37 -15.5t15.5 -37t-15.5 -37t-37 -15.5t-37 15.5t-15.5 37zM516 422zM464 421.5q0 21.5 15 37
t36.5 15.5t37 -15.5t15.5 -37t-15.5 -37t-37 -15.5t-36.5 15.5t-15 37zM747 422zM695 421.5q0 21.5 15 37t37 15.5t37 -15.5t15 -37t-15 -37t-37 -15.5t-37 15.5t-15 37z" />
    <glyph glyph-name="dingwei1" unicode="&#xe637;" 
d="M512 896q-103 0 -191 -51.5t-139 -140t-51 -192.5q0 -57 50.5 -167.5t116 -213.5t128.5 -181t86 -78t86 78t128 181.5t116 214t51 166.5q0 104 -51 192.5t-139 140t-191 51.5zM512 352q-66 0 -112.5 47t-46.5 113t46.5 113t112.5 47t112.5 -47t46.5 -113t-46.5 -113
t-112.5 -47z" />
    <glyph glyph-name="xinxing2" unicode="&#xe600;" 
d="M729 776q-70 0 -128 -32.5t-89 -85.5q-31 53 -89 85.5t-128 32.5q-69 0 -122.5 -36t-80.5 -91t-27 -116q0 -58 24 -118.5t58.5 -110t83 -99t89.5 -83.5t86 -65.5t63 -43t30 -18.5q6 -3 13 -3t13 3q12 7 30 18.5t63 43t86 65.5t89.5 83.5t83 99t58.5 110t24 118.5
q0 61 -27 116t-80.5 91t-122.5 36z" />
    <glyph glyph-name="qrcode" unicode="&#xe602;" 
d="M925 350h-826q-14 0 -24 10t-10 24t10 24t24 10h826q14 0 24 -10t10 -24t-10 -24t-24 -10v0v0zM856 -64h-206q-15 0 -25 10t-10 24.5t10 24.5t25 10h206q15 0 25 10t10 25v172q0 14 10 24t24.5 10t24.5 -10t10 -24v-172q0 -43 -30.5 -73.5t-73.5 -30.5v0v0v0zM340 -64
h-172q-43 0 -73.5 30.5t-30.5 73.5v172q0 14 10 24t24.5 10t24.5 -10t10 -24v-172q0 -15 10 -25t25 -10h172q14 0 24 -10t10 -24.5t-10 -24.5t-24 -10v0v0zM99 522q-15 0 -25 10t-10 24v172q0 43 30.5 73.5t73.5 30.5h172q14 0 24 -10t10 -24.5t-10 -24.5t-24 -10h-172
q-15 0 -25 -10t-10 -25v-172q0 -14 -10 -24t-24 -10v0v0zM925 522q-14 0 -24 10t-10 24v172q0 15 -10 25t-25 10h-206q-15 0 -25 10t-10 24.5t10 24.5t25 10h206q43 0 73.5 -30.5t30.5 -73.5v-172q0 -14 -10 -24t-25 -10v0v0zM925 522z" />
    <glyph glyph-name="icon" unicode="&#xe626;" horiz-adv-x="1040" 
d="M591 419q-51 0 -87 35.5t-36 87.5q0 51 35.5 85t87.5 34q51 0 87 -35.5t36 -87.5q0 -51 -35.5 -85t-87.5 -34v0v0zM591 636q-40 0 -67 -28t-27 -66q0 -41 27 -69.5t67 -28.5t67 28t27 66q0 40 -28 69t-66 29v0v0zM591 636zM393 444v0h3v0h-3v0zM393 444zM364 196v43
q79 90 231 90q98 0 165 -37v32q-74 37 -169 37q-81 0 -149 -27t-104 -74q-3 -3 -3 -7v-72q0 -5 1 -8t10 -3h18v26zM955 812h-702q-19 -35 -59 -35t-59 35h-66q-28 0 -48.5 -20t-20.5 -49v-707q0 -28 20.5 -48t48.5 -20h60q5 22 23.5 36.5t42 14.5t41.5 -14.5t23 -36.5h696
q29 0 49 20t20 48v707q0 29 -20 49t-49 20zM975 53q0 -11 -8 -18.5t-18 -7.5h-730v75h-50v-75h-87q-29 0 -29 19v694q0 11 7.5 18.5t18.5 7.5h90v-64h50v61h730q11 0 18.5 -7.5t7.5 -18.5v-684zM219 639h-50v-76h50v76zM219 504h-50v-76h50v76zM219 369h-50v-77h50v77z
M219 233h-50v-76h50v76zM901 268h-63v64q0 9 -6 14.5t-14 5.5t-14 -5.5t-6 -14.5v-64h-65q-8 0 -14 -5.5t-6 -14t6 -14t14 -5.5h65v-64q0 -9 6 -14.5t14 -5.5t14 5.5t6 14.5v64h63q8 0 13.5 5.5t5.5 14t-5.5 14t-13.5 5.5z" />
    <glyph glyph-name="aixin" unicode="&#xe631;" 
d="M904 713q-65 63 -179 63q-31 0 -64 -11q-32 -11 -62 -30q-30 -20 -48 -35q-19 -15 -39 -34q-18 17 -39 34q-22 18 -48 35q-29 19 -62 30q-32 11 -64 11q-114 0 -179 -63t-65 -176q0 -34 12 -70.5t28 -61.5q14 -24 34 -50q18 -22 28 -33q8 -8 14 -13l319 -307
q9 -10 22 -10t22 10l318 306q117 116 117 229t-65 176zM808 356l-296 -286l-296 286q-96 96 -96 181q0 41 11 73t28 50.5t41.5 30.5t48 16t50.5 4q26 0 57 -13t56 -33q23 -18 44 -37q18 -16 31 -31q9 -11 25 -11q15 0 25 11q12 14 30 31q19 17 44 37q27 20 57 33t57 13
q26 0 50 -4q23 -4 48 -16q24 -12 41 -30q18 -19 28 -51q11 -31 11 -73q1 -85 -95 -181z" />
    <glyph glyph-name="shoucang1" unicode="&#xe673;" horiz-adv-x="1025" 
d="M483 67l-172 -91q-34 -17 -65 5.5t-24 59.5l33 192q5 32 -18 55l-139 136q-28 26 -16 62.5t50 41.5l192 28q32 5 47 34l86 175q17 34 55 34t55 -34l86 -175q15 -29 47 -34l192 -28q38 -5 50 -41.5t-16 -62.5l-139 -136q-23 -23 -18 -55l33 -192q7 -37 -24 -59.5t-65 -5.5
l-172 91q-29 15 -58 0z" />
    <glyph glyph-name="shoucang2" unicode="&#xe6d5;" 
d="M954 494q-6 17 -19.5 28.5t-31.5 13.5l-233 35l-101 210q-8 16 -24 26t-34.5 10t-34.5 -10t-24 -26l-101 -210l-233 -35q-17 -2 -31 -13.5t-20 -28.5q-13 -36 15 -64l170 -170l-39 -236q-7 -39 26 -61q17 -12 38 -12q16 0 31 8l203 109l202 -109q15 -8 32 -8q20 0 37 12
q33 22 26 61l-39 236l170 170q28 28 15 64v0zM723 304q-23 -23 -18 -54l40 -236l-203 109q-15 8 -31.5 8t-31.5 -8l-202 -109l39 236q5 31 -17 54l-171 170l233 35q34 5 48 35l102 210l101 -210q14 -30 48 -35l233 -35l-170 -170v0z" />
    <glyph glyph-name="mudedi" unicode="&#xe65c;" horiz-adv-x="1114" 
d="M1114 84q0 -57 -74.5 -106t-203 -77.5t-279.5 -28.5t-279.5 28.5t-203 77.5t-74.5 106q0 56 71.5 104t194.5 77t269 31v194q-83 13 -132.5 81.5t-36 152.5t82 133.5t151.5 36t132.5 -82t35.5 -152.5q-10 -65 -56.5 -112t-111.5 -57v-195q142 -4 259.5 -33t186 -76
t68.5 -102zM707 689q1 58 -39.5 99.5t-98 42t-99 -40t-42.5 -98t39.5 -99t98.5 -42.5h2q57 -1 97.5 39.5t41.5 98.5v0zM568 105q-14 0 -23.5 9.5t-9.5 22.5v0v101q-128 -1 -236 -22t-170.5 -56t-62.5 -76q0 -42 66 -77.5t179 -56t246 -20.5t246 20.5t178.5 56t65.5 77.5
q0 40 -59 74t-162 55.5t-226 24.5v-101q0 -13 -9.5 -22.5t-22.5 -9.5v0z" />
    <glyph glyph-name="meishi" unicode="&#xe615;" horiz-adv-x="1303" 
d="M82 111h1099q33 0 56 23t23 55.5t-23 55.5t-56 23h-6q-23 160 -129 282t-260 167q3 15 3 22q0 65 -46 111t-111 46t-111 -46t-46 -111q0 -7 2 -22q-154 -45 -260 -167t-129 -282h-6q-32 0 -55 -23t-23 -55.5t23 -55.5t55 -23v0zM632 818q32 0 55 -23t23 -56q0 -1 -0.5 -3
t-0.5 -3q-43 6 -77.5 6t-77.5 -6q0 1 -0.5 3t-0.5 3q0 33 23 56t56 23v0zM301 397q38 62 96 106t128 64l6 2v0v0q4 1 8 1q16 0 28 -12t12 -28q0 -15 -9.5 -26t-23.5 -13v-1q-113 -32 -177 -131q-10 -24 -36 -24q-16 0 -27.5 11.5t-11.5 28.5q0 12 7 22v0zM1181 33h-1099
q-32 0 -55 -23t-23 -55.5t23 -55.5t55 -23h1099q33 0 56 23t23 55.5t-23 55.5t-56 23v0z" />
    <glyph glyph-name="yanzhengma" unicode="&#xe64d;" 
d="M718 542l-257 -257l-155 155q-8 7 -17.5 7t-17 -7t-7.5 -17t8 -17l172 -172q7 -8 17 -8t17 8l274 274q8 7 8 16.5t-7.5 17t-17 7.5t-17.5 -7zM949 699q0 24 -13.5 42.5t-35.5 25.5q-14 5 -22 5v0h-2v0v0q-102 4 -185.5 32t-129.5 73h-3q-19 19 -46 19q-25 0 -46 -17
q-3 0 -3 -2q-46 -45 -129 -73t-186 -32v0v0h-2v0q-8 0 -22 -5q-22 -7 -35.5 -25.5t-13.5 -42.5v0v0v-385q0 -36 26.5 -92t72.5 -115.5t101 -112t118.5 -86.5t118.5 -34t118.5 34t118.5 87t101 112.5t72.5 115t26.5 91.5v385v0v0zM900 629v-315q0 -28 -24 -77t-66 -102
t-91 -101.5t-105 -79.5t-102 -31q-46 -1 -102 30t-105 79.5t-91 102t-66 102.5t-24 77v315v73q0 11 6.5 17.5t17.5 6.5h2q176 4 296 80q24 14 47 32q9 9 19 9t19 -9q20 -17 51 -34v0q117 -74 292 -78h2q11 0 17.5 -6.5t6.5 -17.5v-73z" />
    <glyph glyph-name="mima" unicode="&#xe630;" 
d="M860 526h-87v109q0 108 -76.5 184.5t-184.5 76.5t-184.5 -76.5t-76.5 -184.5v-109h-88q-27 0 -46 -19.5t-19 -46.5v-523q0 -27 19 -46t46 -19h698q27 0 46 19t19 46v523q0 27 -19 46.5t-47 19.5v0zM294 635q0 90 64 153.5t154 63.5t154 -63.5t64 -153.5v-109h-436v109v0z
M882 -62q0 -9 -6.5 -15.5t-15.5 -6.5h-697q-9 0 -15 6.5t-6 15.5v522q0 9 6 15.5t15 6.5h698q9 0 15 -6.5t6 -15.5v-522v0zM512 308q-27 0 -46 -19t-19 -47t21 -48v-60q0 -18 13 -31t31 -13t30.5 13t12.5 31v60q22 20 22 49q0 27 -19 46t-46 19v0zM512 308z" />
    <glyph glyph-name="shanchu2" unicode="&#xe666;" 
d="M512 831q-91 0 -173.5 -35t-142 -95t-95 -142.5t-35.5 -173.5t35.5 -173.5t95 -142.5t142 -95t173.5 -35t173.5 35t142.5 95t95.5 142.5t35.5 173.5t-35.5 173.5t-95.5 142.5t-142.5 95t-173.5 35zM682.5 216q-8.5 -9 -21 -9t-21.5 9l-127 127l-127 -126q-9 -9 -21 -9
t-21 8.5t-9 21t9 21.5l126 126l-127 128q-9 8 -9 20.5t9 21.5t21.5 9t20.5 -9l128 -127l125 125q9 9 21.5 9t21 -8.5t8.5 -21t-8 -21.5l-126 -125l127 -128q9 -9 9 -21t-8.5 -21z" />
    <glyph glyph-name="wode" unicode="&#xe60b;" 
d="M512 -34q-156 0 -262.5 26t-106.5 64q0 102 53 192.5t142 139.5q1 1 3 2t3 2l10 6l11 -8q68 -51 147 -51q68 0 147 51l11 8l10 -6q3 -1 9 -4.5t9 -5.5q85 -54 134 -141t49 -185q0 -38 -106.5 -64t-262.5 -26zM184 60q12 -9 42 -19.5t108 -22t178 -11.5t178 11.5t108 22
t42 19.5q-2 86 -45 162t-115 121q-1 1 -3 2t-3 2q-76 -51 -160 -51q-81 0 -160 53q-77 -44 -122.5 -122t-47.5 -167zM512 366q-101 0 -172.5 71t-71.5 172.5t71.5 173.5t172.5 72t172.5 -71.5t71.5 -172.5t-72 -173t-172 -72zM512 814q-84 0 -143.5 -59.5t-59.5 -143.5
t59.5 -143t143.5 -59t143.5 59.5t59.5 142.5t-60 143t-143 60zM518 746q-57 0 -97 -40.5t-40 -98.5q0 -7 -5 -11.5t-11 -4.5q-8 0 -12.5 5t-4.5 11q0 72 50.5 123t121.5 51q8 0 12.5 -5t4.5 -11q-2 -8 -7.5 -13.5t-11.5 -5.5zM369 542zM348 541.5q0 8.5 6 14.5t14.5 6
t14.5 -6t6 -14.5t-6 -14.5t-14.5 -6t-14.5 6t-6 14.5z" />
    <glyph glyph-name="shenqing" unicode="&#xe77f;" 
d="M857 140q-7 -68 -61 -159h-200q-11 19 -26 38.5t-40.5 46.5t-60.5 46t-73 24q-12 2 -25 8.5t-13 12.5t7.5 11.5t14.5 8.5q34 12 65 12q10 0 32 -8t36 -17l35 -22v366q0 11 6.5 18.5t15.5 7.5h3q9 0 15.5 -7.5t6.5 -18.5v-213h45v273q0 11 6.5 18.5t15.5 7.5h4
q9 0 15.5 -7.5t6.5 -18.5v-273h45v185q0 11 6.5 18.5t15.5 7.5h4q9 0 15 -7.5t6 -18.5v-185h45v124q0 10 4.5 16.5t10.5 6.5h3q5 0 9.5 -6.5t4.5 -16.5v-279zM902 419q0 28 -17.5 48t-41.5 20h-3q-8 0 -15 -2q-1 28 -20.5 47t-45.5 19h-4q-11 0 -22 -3v20q0 30 -19.5 51
t-47.5 21h-4q-26 0 -45 -19t-21 -46q-11 4 -23 4h-3q-28 0 -47.5 -20.5t-19.5 -50.5v-289q-36 16 -58 16q-38 0 -80 -15q-19 -7 -35.5 -23.5t-16.5 -39.5q0 -21 15.5 -36.5t31.5 -21.5t30 -8q29 -3 58.5 -21t50 -39.5t37.5 -44t25.5 -36.5l8.5 -14h251q75 142 81 197v286v0z
M541 760h4v72h-5h-211h-4v-72h4h212zM591 603h3v42q-2 1 -3 1h-313q-2 0 -3 -1v-41q2 -1 3 -1h313zM663 770q19 0 30.5 -11.5t11.5 -29.5v-80h41l1 79q0 37 -22 60.5t-62 23.5h-41h-3v-41q1 -1 3 -1h41zM486 488v43h-208q-1 0 -3 -1v-42h3h208zM163 250v479q0 18 11.5 29.5
t30.5 11.5h52q1 0 1 1v41h-1h-52q-42 0 -62.5 -23t-20.5 -61v-474q0 -39 23 -63t64 -24h66v41h-60q-19 0 -35.5 12t-16.5 30zM484 406h-206q-1 0 -3 -1v-41q2 -1 3 -1h207z" />
    <glyph glyph-name="jiudian" unicode="&#xe65a;" 
d="M957 85h-54v422q0 25 -12.5 44t-34.5 19h-131q-15 0 -30.5 -14.5t-15.5 -29.5v-441h-37v646q0 25 -12.5 44t-34.5 19h-411q-23 0 -44 -20t-21 -43v-646h-54q-2 0 -2 -2v-144q0 -1 0.5 -1.5t1.5 -0.5h892q2 0 2 2v144q0 2 -2 2zM341 310q0 -16 -11 -27t-26 -11h-74
q-15 0 -26 11t-11 27v73q0 16 11 27t26 11h74q15 0 26 -11t11 -27v-73zM341 535q0 -16 -11 -27t-26 -11h-74q-15 0 -26 11t-11 27v73q0 16 11 27t26 11h74q15 0 26 -11t11 -27v-73zM565 310q0 -16 -10.5 -27t-26.5 -11h-74q-15 0 -26 11t-11 27v73q0 16 11 27t26 11h74
q16 0 26.5 -11t10.5 -27v-73zM565 535q0 -16 -10.5 -27t-26.5 -11h-74q-15 0 -26 11t-11 27v73q0 16 11 27t26 11h74q16 0 26.5 -11t10.5 -27v-73zM847 198q0 -15 -11 -26t-27 -11h-36q-16 0 -27 11t-11 26v37q0 15 11 26t27 11h36q16 0 27 -11t11 -26v-37zM847 384
q0 -15 -11 -26t-27 -11h-36q-16 0 -27 11t-11 26v37q0 16 11 26.5t27 10.5h36q16 0 27 -10.5t11 -26.5v-37z" />
    <glyph glyph-name="home" unicode="&#xe601;" 
d="M949 504l-422 324v1h-1v0q0 1 -1 1v0q-1 1 -2 1v0q-1 0 -1 1v0h-1v0q-10 4 -20 -1v0v0h-1l-0.5 -0.5l-0.5 -0.5v0q-1 0 -1 -1v0h-1v-1l-422 -324q-8 -6 -9.5 -17t4.5 -19q8 -11 20 -11q9 0 16 5l66 51v-443q0 -78 25.5 -107t97.5 -29h434q73 0 103 30t30 106v436l56 -44
q7 -5 16 -5q12 0 20 11q6 8 4.5 19t-9.5 17zM606 -14h-179v222v9v6.5v4.5t1.5 3.5t2.5 1.5t4.5 1t6 0.5t9.5 0.5h122q22 0 27.5 -4t5.5 -23v-222zM811 535v-465q0 -55 -14.5 -69.5t-67.5 -14.5h-97v222q0 32 -14 42.5t-45 10.5h-122q-29 0 -39 -10t-10 -43v-222h-107
q-51 0 -61.5 13.5t-10.5 70.5v465q0 8 -4 14l293 226l300 -231q-1 -4 -1 -9zM443 642l-166 -131q-3 -2 -3 -10v-149q0 -5 4 -9t9 -4t9 4t4 9v142l160 128q9 7 0 18q-7 10 -17 2zM287 313q-5 0 -9 -4t-4 -9v-13q0 -6 4 -9.5t9 -3.5t9 3.5t4 9.5v13q0 5 -4 9t-9 4z" />
    <glyph glyph-name="sousuolansousuo" unicode="&#xe651;" 
d="M73 457.5q0 99.5 49 183.5t133.5 133t183.5 49t183.5 -49t133.5 -133t49 -183.5t-49 -183.5t-133.5 -133t-183.5 -49t-183.5 49t-133.5 133t-49 183.5zM1013 -65l-239 239q104 122 104 283q0 89 -35 170.5t-93.5 140t-140 93.5t-170.5 35t-170.5 -35t-140 -93.5
t-93.5 -140t-35 -170.5t35 -170t93.5 -140t140 -93.5t170.5 -34.5q161 0 283 103l240 -239q10 -11 25 -11t26 11t11 26t-11 26z" />
    <glyph glyph-name="jiudian1" unicode="&#xe6ab;" 
d="M900 32h-15v160v32v175v32v81q0 40 -28 68t-68 28h-64v64q0 40 -28 68t-68 28h-160h-49h-49h-158q-40 0 -68 -28t-28 -68v-96v-15v-209v-96v-32v-111v-79h-17q-15 0 -15 -17t15 -17h753h32h15q7 0 12 4.5t5 10.5q0 17 -17 17zM693 591v-559h-544v79v241v224v96
q0 27 18.5 45.5t45.5 18.5h207h209q28 0 46 -18.5t18 -45.5v-81zM853 431v-32v-207v-160h-128v529v15h64q28 0 46 -18.5t18 -45.5v-81zM373 623h-128q-12 0 -22 -9.5t-10 -22.5v-128q0 -13 10 -22.5t22 -9.5h128q13 0 22.5 9.5t9.5 22.5v128q0 14 -9 23t-23 9zM373 463h-128
v128h128v-128zM373 335h-128q-12 0 -22 -9.5t-10 -22.5v-128q0 -13 10 -22.5t22 -9.5h128q13 0 22.5 9.5t9.5 22.5v128q0 14 -9 23t-23 9zM373 175h-128v128h128v-128zM597 623h-128q-12 0 -22 -9.5t-10 -22.5v-128q0 -13 10 -22.5t22 -9.5h128q13 0 22.5 9.5t9.5 22.5v128
q0 14 -9 23t-23 9zM597 463h-128v128h128v-128zM597 335h-128q-12 0 -22 -9.5t-10 -22.5v-128q0 -13 10 -22.5t22 -9.5h128q13 0 22.5 9.5t9.5 22.5v128q0 14 -9 23t-23 9zM597 175h-128v128h128v-128z" />
    <glyph glyph-name="xinxi1" unicode="&#xe636;" 
d="M954 682v0.5v0.5v0q-3 6 -9 11q-2 1 -3 2q-6 4 -13 4h-837q-6 0 -13 -4q-1 0 -3 -2q-6 -5 -9 -11v0v-0.5v-0.5q-1 -5 -1 -9v-575q0 -11 7.5 -19t18.5 -8h419h418q11 0 19 8t8 19v575q0 4 -2 9v0zM861 646l-350 -327l-351 327h701zM511 125h-392v486l373 -349
q8 -7 18.5 -7t18.5 7l373 349v-486h-391v0v0z" />
    <glyph glyph-name="tuiguang" unicode="&#xe628;" 
d="M1019 814q-1 -1 -4 -5l-6 -8t-7 -7q-65 -48 -187 -139.5t-177 -132.5q-21 -16 -45 -1q-19 12 -72.5 44.5t-82.5 50.5q-18 11 -35 -2q-72 -54 -326 -243q-2 -2 -6 -5.5t-7 -5.5t-6 -2q-29 -1 -35 7t1 37q0 2 2.5 4t7 5t5.5 4q303 225 348 260q31 23 62 2
q25 -16 74.5 -45.5t71.5 -43.5q19 -12 38 2q71 54 325 243q15 11 19 13q16 8 29 -1.5t13 -30.5zM520 -41h453q2 0 7.5 0.5t9 0.5t5.5 -2q27 -16 26 -25q-1 -10 -25 -29q-2 -1 -5 -1.5t-8 0t-7 0.5h-918h-8q-38 -1 -38 28q-1 28 37 28h294h177zM880 322q1 167 1 199
q0 21 5 30q7 13 22 13q6 0 13 -4t9 -9q6 -12 6 -34q1 -129 0 -391q0 -26 -6.5 -37.5t-21.5 -11.5t-21 11t-6 37q-1 22 -1 197zM733 221v-126q0 -22 -3 -27q-11 -18 -24 -19q-5 0 -12.5 5.5t-11.5 11.5q-5 8 -5 30v248v5q1 14 2 21t7.5 14.5t19.5 7.5q12 0 18.5 -8t7.5 -15
t1 -21v-127zM559 246v-131q0 -11 -1.5 -18t-8 -13t-17.5 -6q-28 0 -29 37v269q1 37 30 36q16 0 21 -10t5 -26v-138zM302 221v107q0 33 25 35q29 2 30 -34q1 -105 0 -217q0 -16 -6.5 -25.5t-22.5 -8.5q-26 0 -26 36q-1 13 0 107zM97 173q1 71 1 74q0 33 26 34q29 0 29 -35
q1 -59 0 -147q0 -36 -28 -35q-27 0 -28 35v74z" />
    <glyph glyph-name="cheliang1" unicode="&#xe603;" horiz-adv-x="1580" 
d="M1470 565l-3 3l-54 52q36 8 64.5 33.5t28.5 53.5q0 31 -34.5 46t-80.5 15q-61 0 -62 -65l-140 135q-21 21 -56.5 35.5t-65.5 14.5h-542q-30 0 -65.5 -14.5t-56.5 -35.5l-139 -135q-1 65 -62 65q-47 0 -81.5 -15t-34.5 -46q0 -27 29 -52.5t64 -33.5l-54 -53l-1 -1.5
t-2 -1.5q-42 -36 -68.5 -96.5t-26.5 -112.5v-198q0 -72 49 -125v-77q0 -33 24.5 -57t59.5 -24h101q34 0 58.5 24t24.5 57v20h905v-20q0 -33 24.5 -57t58.5 -24h101q35 0 59.5 24t24.5 57v77q49 53 49 125v198q0 52 -27 112t-69 97v0zM454 778q14 12 36 20.5t35 8.5h542
q14 0 35.5 -8.5t35.5 -20.5l183 -178h-1049zM174 276q-35 0 -60 26t-25 62.5t25 62.5t60 26q24 0 72 -24t88 -58.5t40 -56.5q0 -10 -8 -17.5t-23.5 -11.5t-32 -6.5t-38.5 -3t-37.5 -0.5t-35 0.5t-25.5 0.5v0zM1052 168h-512q-40 0 -68.5 43t-28.5 105h706
q0 -61 -28.5 -104.5t-68.5 -43.5v0zM1418 276q-6 0 -25.5 -0.5t-35 -0.5t-37.5 0.5t-38.5 3t-31.5 6.5t-23.5 11.5t-8.5 17.5q0 23 40.5 57t88.5 58t71 24q36 0 60.5 -25.5t24.5 -62.5t-24.5 -63t-60.5 -26v0z" />
    <glyph glyph-name="zhuangtai" unicode="&#xe677;" 
d="M512 812q-116 0 -214.5 -57.5t-156 -156t-57.5 -214.5t57.5 -214.5t156 -156t214.5 -57.5t214.5 57.5t156 156t57.5 214.5t-57.5 214.5t-156 156t-214.5 57.5zM512 14q-101 0 -186 49.5t-134.5 134.5t-49.5 186t49.5 186t134.5 134.5t186 49.5t186 -49.5t134.5 -134.5
t50 -186t-49.5 -186t-135 -134.5t-186 -49.5zM469 150h86v101h-86v-101zM469 312h86v306h-86v-306z" />
    <glyph glyph-name="fenxiangtubiao" unicode="&#xe612;" 
d="M848 544q73 0 124.5 51.5t51.5 124.5t-51.5 124.5t-124.5 51.5t-124.5 -51.5t-51.5 -124.5q0 -11 2 -25l-370 -143q-52 56 -128 56q-73 0 -124.5 -51.5t-51.5 -124.5t51.5 -124.5t124.5 -51.5q56 0 102 33l250 -168q-16 -35 -16 -73q0 -73 51.5 -124.5t124.5 -51.5
t124.5 51.5t51.5 124.5t-51.5 124.5t-124.5 51.5q-71 0 -123 -50l-242 161q29 44 29 97q0 34 -13 65l356 137q23 -41 63.5 -65.5t89.5 -24.5zM848 832q46 0 79 -33t33 -79t-33 -79t-79 -33t-79 33t-33 79t33 79t79 33zM176 320q-46 0 -79 33t-33 79t33 79t79 33t79 -33
t33 -79t-33 -79t-79 -33zM688 160q46 0 79 -33t33 -79t-33 -79t-79 -33t-79 33t-33 79t33 79t79 33z" />
    <glyph glyph-name="mudedichanpin" unicode="&#xe647;" 
d="M512 65v0q-14 0 -23 11q-173 211 -245 330q-50 78 -50 171q0 132 93 225.5t225 93.5t225.5 -93.5t93.5 -225.5q0 -81 -40 -153q-24 -56 -143 -207q-60 -77 -113 -141q-9 -11 -23 -11zM512 836q-107 0 -183 -75.5t-76 -183.5q0 -76 41 -139q0 -1 1 -1q59 -99 217 -295
q195 237 225 307q1 2 2 3q32 58 32 125q0 108 -76 183.5t-183 75.5zM511.5 433q-59.5 0 -102 42.5t-42.5 102t42.5 102t102 42.5t102 -42.5t42.5 -102t-42.5 -102t-102 -42.5zM511 662q-35 0 -59.5 -25t-24.5 -59.5t24.5 -59.5t59.5 -25t60 25t25 59.5t-25 59.5t-60 25z
M512 -127q-170 0 -291 60q-63 32 -97 74t-34 90q0 46 31 86.5t89 72.5q10 5 21 1.5t16.5 -13.5t2 -20.5t-13.5 -16.5q-91 -49 -91 -110q0 -31 26.5 -61t73.5 -54q110 -55 267 -55t267 55q47 24 73.5 54t26.5 61q0 61 -91 110q-10 6 -13.5 16.5t2 20.5t16.5 13.5t21 -2.5
q58 -31 89 -72t31 -86q0 -48 -34 -90t-97 -74q-121 -60 -291 -60zM437 -24q-76 0 -135.5 25t-79.5 65q-5 10 -1 20.5t14 15.5t20.5 1.5t16.5 -13.5q11 -23 56.5 -41t108.5 -18q11 0 19 -8t8 -19.5t-8 -19.5t-19 -8z" />
    <glyph glyph-name="shaixuan" unicode="&#xe614;" 
d="M379 417v-276q0 -24 17 -41l150 -149q16 -17 40 -17h1q12 0 23 4q14 6 24.5 22t10.5 31v426l282 282q12 12 15.5 29.5t-3.5 34.5q-6 14 -21.5 24.5t-31.5 10.5h-748q-16 0 -31.5 -10.5t-22.5 -25.5q-6 -16 -2.5 -33.5t15.5 -29.5zM122 746q5 11 16 11h748q11 0 16 -10
q1 -4 1 -7q0 -7 -5 -12l-294 -294v-443q0 -11 -10 -15q-4 -1 -7 -1h-1q-6 0 -11 5l-150 149q-5 5 -5 12v293l-294 294q-5 5 -5 12q0 3 1 6z" />
    <glyph glyph-name="jiantouyoujiantou" unicode="&#xe63c;" 
d="M724 363l0.5 1t0.5 2q7 13 4.5 28t-13.5 26l-344 325q-14 13 -33 12.5t-32.5 -14.5t-13 -33.5t14.5 -32.5l309 -292l-308 -296q-14 -13 -14 -32.5t13 -33.5q14 -14 34 -14q19 0 32 13l341 328l0.5 1t1 1.5l1.5 1.5t6 9v0zM724 363z" />
    <glyph glyph-name="hehuoren" unicode="&#xe607;" 
d="M196 224l-4 -4q-7 -3 -17.5 0.5t-18.5 11.5q-11 11 -12 25q-1 10 4 14l129 125q4 3 11 3v0q15 0 28 -13q11 -12 13 -25q0 -6 -2 -11l-2 -2zM281 139q-2 -2 -4 -5q-4 -1 -8 -1q-15 0 -28 13q-19 20 -11 36l2 2l129 124l4 4q4 2 8 2q15 0 28 -14q11 -11 12 -25q1 -6 -1 -10
l-2 -2zM365 53q-1 -2 -4 -4t-7 -2q-15 0 -28 14q-19 19 -11 36q1 1 2 1l129 124q2 2 4 5q3 1 8 1q15 0 28 -13q18 -19 11 -36q-2 -1 -2 -2zM450 -34q-4 -4 -12 -4q-15 0 -28 13q-11 12 -12 25q0 6 2 11l2 2l129 124l4 4q3 2 8 2q15 0 28 -14q11 -11 12 -25q1 -9 -4 -14z
M583 -41q-24 -11 -52 11l70 67l1 -10q2 -17 -1.5 -40t-17.5 -28zM869 260q-10 -12 -23 -17.5t-18 -1.5l-4 3l1 1l-141 141l-38 -38l141 -140q1 -34 -15 -50q-12 -13 -37 -13l2 2l-149 149l-38 -38l141 -141l1 -2q4 -27 -11 -43q-14 -16 -52 -15h-8q18 22 15 52q-3 32 -27 57
t-58 29q-3 32 -27 57t-58 28v0q-3 32 -27 57t-58 29v0q-3 32 -26 57q-25 25 -59 28.5t-56 -17.5l-63 -61q-35 25 -58.5 55t-34 57t-14 57t-2 51t7 42.5t8 29t4.5 12.5q23 41 53 69.5t60 40.5t49 16.5t36 5.5q93 4 180 -78q-92 -91 -201 -211l25 -24q12 -17 27 -31.5
t38.5 -28t49.5 -20t60.5 -4t70.5 16.5q39 15 122 97q164 -162 215 -215q21 -22 -4 -51zM872 388q-18 18 -195 194l-19 19l-19 -19q-32 -33 -68.5 -65t-53.5 -39q-35 -13 -66.5 -13.5t-53.5 10.5t-35.5 22t-23.5 24q192 207 266 263q28 22 73.5 32t92.5 0q103 -21 165 -135
q4 -8 8.5 -20t9.5 -45t1.5 -66t-24 -78t-58.5 -84z" />
    <glyph glyph-name="qianjin" unicode="&#xe606;" 
d="M481 656q4 0 7 -2l444 -257q7 -4 7 -12t-7 -12l-444 -256q-3 -2 -7 -2q-5 0 -9.5 4t-4.5 10v197l-30 -18l-332 -191q-3 -2 -7 -2q-5 0 -9.5 4t-4.5 10v513q0 6 4.5 10t9.5 4q4 0 7 -2l332 -192l30 -17v197q0 6 4.5 10t9.5 4zM481 676q-13 0 -23.5 -10t-10.5 -24v-163
l-332 192q-8 5 -17 5q-13 0 -23.5 -10t-10.5 -24v-513q0 -15 10.5 -24.5t23.5 -9.5q9 0 17 4l332 192v-162q0 -15 10.5 -24.5t23.5 -9.5q9 0 17 4l444 257q17 10 17 29.5t-17 29.5l-444 256q-8 5 -17 5z" />
    <glyph glyph-name="chujingchaoshi" unicode="&#xe60e;" horiz-adv-x="1095" 
d="M885 460l-102 -400l37 36h-614l42 -36l-47 141q-1 4 -8.5 4t-16.5 -2t-18 -5.5t-14.5 -7.5t-4.5 -8l45 -136l5 -16h647l6 15l91 364l-22 -15h58q4 0 6.5 7t3 16.5t-0.5 19.5t-3.5 16.5t-5.5 6.5h-84v0zM765 774l-21 -70q-1 -7 6 -7h20q6 0 10 6l41 71h63q11 0 19 8t8 20
v-11q0 11 -8 19t-19 8h-63l-41 71q-4 6 -10 6h-20q-7 0 -6 -7l21 -70h-51l-22 22h-21q-7 0 -4 -6l14 -38l-14 -37q-3 -7 4 -7h21l23 22h50zM138 462q-10 0 -16.5 7t-6.5 16q0 93 56 171.5t151.5 124t208.5 45.5h85l-1 -66h-84q-154 0 -252 -76.5t-98 -198.5q0 -9 -16 -16
t-27 -7zM855 633l7 33h-299q-84 1 -149 -22.5t-103.5 -63t-58 -87.5t-19.5 -100q-1 -118 71 -190q74 -74 190 -74q113 0 186 72q68 68 74 177q22 13 40.5 31.5t29 35.5t18 34t10 26t3.5 12l6 26h-40q24 41 34 90zM776 505q-1 -3 -2 -8.5t-7 -20t-14 -27.5t-23.5 -27.5
t-34.5 -23.5q0 -89 -54 -146.5t-144 -57.5q-85 0 -141.5 53.5t-55.5 148.5q0 40 16 77t46.5 67t81 47.5t113.5 16.5h221q-10 -59 -46 -99h44zM170 189zM138 189.5q0 -13.5 9.5 -23t23 -9.5t23 9.5t9.5 23t-9.5 23t-23 9.5t-23 -9.5t-9.5 -23zM148 487zM116 486.5
q0 -13.5 9.5 -23t23 -9.5t23 9.5t9.5 23t-9.5 23.5t-23 10t-23 -10t-9.5 -23.5zM974 427zM941 427q0 -14 9.5 -23.5t23 -9.5t23.5 9.5t10 23.5t-10 23.5t-23.5 9.5t-23 -9.5t-9.5 -23.5zM711 11q-28 0 -47.5 -20t-19.5 -48t19.5 -47.5t47.5 -19.5t48 19.5t20 47.5t-20 48
t-48 20zM711 -78q-9 0 -15 6t-6 15t6 15t15 6t15 -6t6 -15t-6 -15t-15 -6zM322 11q-28 0 -48 -20t-20 -48t20 -47.5t48 -19.5t48 19.5t20 47.5t-20 48t-48 20zM322 -78q-9 0 -15 6t-6 15t6 15t15 6t15 -6t6 -15t-6 -15t-15 -6z" />
    <glyph glyph-name="girl2" unicode="&#xe662;" 
d="M605.5 190q-118.5 0 -203 84.5t-84.5 203t84.5 203t203 84.5t203 -84.5t84.5 -203t-84.5 -203t-203 -84.5zM605.5 697q-90.5 0 -155 -64.5t-64.5 -155t64.5 -155t155 -64.5t155 64.5t64.5 155t-64.5 155t-155 64.5zM179 23q-14 0 -24 10t-10 24t10 24l244 244
q10 10 24 10t24 -10t10 -24t-10 -24l-244 -244q-10 -10 -24 -10zM408 4q-14 0 -24 10l-242 242q-10 10 -10 24t10 24t24.5 10t24.5 -10l241 -241q10 -10 10 -24.5t-10 -24.5t-24 -10z" />
    <glyph glyph-name="nv2" unicode="&#xe695;" 
d="M817 687q-100 101 -242 101t-242 -100.5t-100 -242.5q0 -125 80 -220l-58 -59l-99 99q-8 8 -19.5 7.5t-20.5 -9t-9 -20t8 -20.5l98 -98l-88 -89q-9 -8 -9 -20t8.5 -20.5t21 -8.5t20.5 8l89 89l98 -98q8 -9 20 -8.5t20.5 9t9 20.5t-8.5 20l-98 98l59 59q95 -81 220 -81
q142 0 242 100.5t100 242t-100 241.5zM575 161q-117 0 -200.5 83.5t-83.5 201t83.5 200.5t200.5 83t200.5 -83t83.5 -200.5t-83.5 -201t-200.5 -83.5z" />
    <glyph glyph-name="mf_qianduan_gentuanyoutubiao" unicode="&#xe625;" 
d="M937 589q-3 5 -17 14t-14 11l-773 277q-5 5 -15 5q-15 0 -25.5 -9.5t-10.5 -21.5v-957q0 -15 9 -23t22 -8q14 0 22 9t8 22v906l686 -251l-547 -317v389l10 -5l220 -72q12 -4 24.5 2.5t16.5 18t-2.5 24.5t-18.5 17l-271 92h-15q-12 0 -21.5 -10t-9.5 -21v-486
q0 -13 7.5 -22t18.5 -9q15 -8 30 0l11 5l645 374q11 7 14.5 20.5t-4.5 25.5z" />
    <glyph glyph-name="riqi" unicode="&#xe7b5;" 
d="M898 -30h-772q-24 0 -41.5 17.5t-17.5 42.5v593q0 24 17.5 41.5t41.5 17.5h149v-59h-149v-593h772v593h-149v59h149q24 0 41.5 -17.5t17.5 -41.5v-593q0 -25 -17.5 -42.5t-41.5 -17.5zM393 682h238v-59h-238v59zM334 798q-13 0 -21.5 -8.5t-8.5 -21.5v-175
q0 -13 8.5 -21.5t21.5 -8.5t21.5 8.5t8.5 21.5v175q0 13 -8.5 21.5t-21.5 8.5zM690 798q-13 0 -21.5 -8.5t-8.5 -21.5v-175q0 -13 8.5 -21.5t21.5 -8.5t21.5 8.5t8.5 21.5v175q0 13 -8.5 21.5t-21.5 8.5zM67 474h890v-59h-890v59zM637 338l-146 -145q-9 -9 -20.5 -9t-20.5 9
l-63 62q-8 9 -20 9t-21 -9t-9 -21t9 -21l83 -83l21 -20q9 -9 20.5 -9t20.5 9l21 20l169 169q9 9 9 21t-9 21q-9 7 -22.5 6.5t-21.5 -9.5z" />
    <glyph glyph-name="yun" unicode="&#xe67c;" 
d="M734 519q-37 65 -101 102.5t-138 37.5q-103 0 -181 -68q-70 -61 -88 -151q-54 -15 -88 -60t-34 -102q0 -62 41 -109t102 -57v-2h471q85 0 145 60t60 145q0 81 -55 140t-134 64zM718 157h-445h-2q-49 1 -84.5 36.5t-35.5 84.5q0 44 28 78t72 42l16 3l3 16q12 83 75 139
q64 56 150 56q55 0 104 -25.5t81 -70.5q-79 -15 -126 -79q-6 -8 -4.5 -17.5t9.5 -15.5t17.5 -4.5t15.5 9.5q47 64 126 64q66 0 112 -46.5t46 -111.5t-46 -111.5t-112 -46.5z" />
    <glyph glyph-name="lvyou" unicode="&#xe604;" 
d="M571 43q27 210 103 370q-3 13 -3 14q-25 -13 -64 -25q-66 -156 -92 -350q-20 3 -41 6q-27 225 -115 410q-25 13 -39 21q4 -34 2 -77q69 -160 94 -349q-198 8 -263 -99q-18 -29 -20 -54h888q-197 88 -450 133zM479 399q-15 11 -31 20q-17 -34 -18 -73q17 32 49 53z
M324 180q-33 32 -44.5 70t-8.5 77t7 79.5t-3.5 92.5t-33.5 103q18 -24 66 -54t95 -53.5t90.5 -51.5t54.5 -50q-6 37 -18.5 68t-28.5 53t-40 41t-45.5 31t-51.5 22.5t-52.5 16.5t-53.5 13q50 -9 91 -9t70 7.5t55 16t46.5 15.5t45 6.5t49.5 -11.5q-57 61 -166 63.5t-205 -60.5
q24 24 63 45.5t72 35t67 37t51 53.5q-88 16 -168 -38.5t-100 -130.5q2 17 -0.5 63.5t4 77t32.5 44.5q-32 -1 -57 -23t-36 -52t-9.5 -63t18.5 -55q-45 19 -81.5 1.5t-60 -54t-23.5 -72.5q51 63 154 94q-84 -45 -130.5 -145.5t-31.5 -220.5q1 33 20.5 71.5t44.5 71t57.5 83.5
t53.5 100q-16 -47 -17.5 -104.5t11 -116.5t50.5 -110.5t97 -77.5zM693 587q-39 31 -87 46q-47 6 -107 -18q-8 -3 -31 -10q17 -12 31 -26q7 -1 29 -5.5t32 -6t34.5 -5t37 -2.5t39.5 1q-74 -18 -121 -43q21 -37 32 -78q44 13 75 29t55 45q-7 -35 4.5 -89t28.5 -101t28.5 -102
t3.5 -91q39 93 29 208.5t-55 188.5q33 -43 71.5 -73.5t66 -44.5t55.5 -31.5t44 -37.5q1 89 -60.5 143t-152.5 66q20 0 44.5 -0.5t47 -1.5t43 -9.5t32.5 -25.5q-11 41 -41 69t-71 30.5t-85 -34.5q13 38 -9.5 76t-63 57t-77.5 9q26 -8 39.5 -27.5t27 -51.5t31.5 -54z" />
    <glyph glyph-name="guanyu" unicode="&#xe638;" 
d="M949 783h-268q-79 0 -135 -57q-16 -17 -30 -43q-14 26 -30 43q-56 57 -135 57h-268q-10 0 -17.5 -7.5t-7.5 -18.5v-735q0 -11 7.5 -18.5t17.5 -7.5h241q16 0 31 -3t30 -9l122 -49v0v0q5 -2 9 -2t9 2v0v0l118 47q17 7 34.5 10.5t35.5 3.5h236q11 0 18 7.5t7 18.5v735
q0 11 -7 18.5t-18 7.5zM364 45q-19 4 -39 4h-1h-215v681h242q58 0 98.5 -42t40.5 -102v-588l-87 36q-19 7 -39 11zM923 49h-210q-23 0 -45 -4q-23 -5 -44 -13l-82 -34v588q0 60 40.5 102t98.5 42h242v-681v0zM923 49z" />
    <glyph glyph-name="pinglun" unicode="&#xe61b;" 
d="M514 110q0 -9 6.5 -15.5t15.5 -6.5h336q9 0 15.5 6.5t6.5 15.5t-6.5 15.5t-15.5 6.5h-336q-9 0 -15.5 -6.5t-6.5 -15.5zM872 13h-495q-9 0 -15.5 -6.5t-6.5 -15.5t6.5 -15.5t15.5 -6.5h495q9 0 15.5 6.5t6.5 15.5t-6.5 15.5t-15.5 6.5zM436 184l0.5 0.5l1.5 1.5l332 332
l61 61q41 41 41 97.5t-41 96.5l-18 19q-40 40 -97 40t-97 -40l-393 -394q-1 0 -1.5 -0.5l-0.5 -0.5l-1 -1l-2 -3v0v0q-21 -26 -44 -98.5t-33 -115.5t-16 -76q-2 -12 6 -19q6 -6 14 -6q3 0 5 1q32 7 73.5 18.5t112 37.5t95.5 47zM267 382l305 304l154 -154l-305 -305z
M648 763q29 28 68.5 28t67.5 -28l18 -19q28 -28 28 -67.5t-28 -67.5l-47 -47l-154 154zM241 349l148 -148q-61 -33 -214 -74q34 160 66 222z" />
    <glyph glyph-name="gou" unicode="&#xe62f;" 
d="M153 421l209 -166l522 480q2 1 4.5 3t10 6t15 6t17.5 0.5t19 -8.5q5 -5 8 -12.5t1 -21t-13 -28.5l-545 -638q-2 -2 -5 -5.5t-13 -10.5t-20 -9t-25 3.5t-28 22.5l-236 317q-3 5 -6.5 12.5t-2.5 26t17 29.5q34 26 71 -7zM153 421z" />
    <glyph glyph-name="hezuo" unicode="&#xe72a;" horiz-adv-x="1772" 
d="M449 482q5 14 17 17l502 136q19 4 32 -10q14 -15 7 -38q-5 -19 -23 -23l-435 -118l199 -226q66 -74 158 -74q36 0 73 16.5t65 40.5t50.5 47.5t34.5 40.5l12 16q14 24 39 13q23 -9 20 -33q-2 -13 -15 -27q-6 -7 -16 -19.5t-42 -43.5t-63.5 -55t-75 -44t-82.5 -20
q-118 0 -201 94l-250 285q-10 11 -6 25zM1289 491q-5 -13 -17 -16l-503 -136q-18 -4 -31 11q-14 15 -7 37q5 19 23 24l434 117l-199 226q-65 75 -158 75q-35 0 -72 -17t-65 -40.5t-51 -47.5t-35 -40l-12 -17q-14 -23 -38 -13t-20 33q2 14 15 27q5 7 15.5 19.5t42.5 44
t63.5 55.5t75 43.5t81.5 19.5q119 0 201 -94l251 -285q10 -11 6 -26z" />
    <glyph glyph-name="xiaoshou" unicode="&#xe61a;" 
d="M931 435q47 -47 47 -111.5t-47 -111.5l-242 -242q-20 -19 -53 -33t-60 -14h-1v0q-27 0 -60 14t-53 33l-397 392q-33 33 -33 65v340q0 33 28.5 53.5t73.5 20.5h344q42 0 61 -18l392 -388v0zM899 245q33 33 33 78.5t-33 78.5l-392 388q-6 5 -29 5h-344q-4 0 -10 -0.5
t-18 -2.5t-20 -9t-8 -16v-340q0 -13 19 -33l397 -392q14 -13 38 -23t43 -10v0h1q19 0 42.5 10t37.5 23l243 243v0zM306.5 709q56.5 0 96.5 -40t40 -97t-40 -97t-96.5 -40t-97 40t-40.5 97t40.5 97t97 40zM306 480q38 0 65 27t27 65t-27 64.5t-65 26.5t-64.5 -26.5
t-26.5 -64.5t26.5 -65t64.5 -27zM528 405l183 -183q7 -6 7 -15.5t-7 -16.5t-16 -7v0q-10 0 -16 7l-183 183q-7 7 -7 16t7 16t16 7t16 -7v0z" />
    <glyph glyph-name="xitongshezhi" unicode="&#xe618;" 
d="M662 -22v0q-26 0 -43 18q-16 18 -43 36.5t-51 18.5q-23 0 -50.5 -18.5t-42.5 -35.5q-17 -17 -42 -17q-12 0 -22 4h-1l-110 62l-1 1q-15 10 -20 28.5t2 34.5q11 22 11 45q0 48 -34.5 82t-82.5 34h-4v0q-14 0 -24.5 11.5t-13.5 30.5q-10 50 -10 87q0 38 10 88
q3 19 13.5 30.5t24.5 11.5h4q48 0 82.5 34t34.5 82q0 22 -11 45q-7 16 -2 34.5t20 28.5l1 1l116 63l1 1q10 4 22 4q25 0 42 -17q16 -17 42.5 -34.5t49.5 -17.5t49 17t42 34q17 17 42 17q12 0 22 -4l1 -1l112 -62l1 -1q15 -10 20 -28.5t-2 -35.5q-11 -23 -11 -44
q0 -48 34.5 -82t82.5 -34h4q14 0 24.5 -11.5t14.5 -30.5q9 -50 9 -88t-9 -87q-4 -20 -14.5 -31t-24.5 -11h-4q-48 0 -82.5 -34t-34.5 -82q0 -22 11 -45q7 -16 2 -34.5t-20 -28.5l-1 -1l-114 -63l-1 -1q-10 -4 -21 -4zM658 32q2 -1 4 -1v0l106 59q-14 33 -14 65
q0 67 46.5 116t113.5 53q8 45 8 76t-8 77q-67 4 -113.5 52.5t-46.5 116.5q0 32 14 65l-104 58h-1q-2 0 -4 -1q-16 -17 -39 -32q-48 -35 -90 -35q-43 0 -91 35q-23 16 -39 33q-2 1 -4 1h-1l-108 -59q14 -33 14 -65q0 -68 -46.5 -116.5t-113.5 -52.5q-8 -45 -8 -76.5t8 -76.5
q67 -4 113.5 -53t46.5 -116q0 -32 -14 -65l102 -58h1q2 0 3 1q17 18 39 35q50 36 93 36q44 0 94 -37q23 -17 39 -35zM525.5 246q-64.5 0 -109.5 45.5t-45 109.5t45 109.5t109.5 45.5t109.5 -45.5t45 -109.5t-45 -109.5t-109.5 -45.5zM525.5 503q-42.5 0 -72.5 -30t-30 -72
t30 -72t72.5 -30t72.5 30t30 72t-30 72t-72.5 30z" />
    <glyph glyph-name="-" unicode="&#xe75a;" 
d="M513 379zM50 378.5q0 -94.5 36.5 -180t98.5 -147.5t148 -99t180 -37t180 37t148 99t98.5 147.5t36.5 180t-36.5 180.5t-98.5 148t-148 98.5t-180 36.5t-180 -36.5t-148 -98.5t-98.5 -148t-36.5 -180.5zM511.5 -120q-102.5 0 -195.5 40t-160.5 107.5t-107.5 160.5
t-40 195.5t40 196t107.5 160.5t160.5 107t195.5 40t196 -40t161 -107t107 -160.5t39.5 -196t-39.5 -195.5t-107 -160.5t-161 -107.5t-196 -40zM512 830q-91 0 -174 -35.5t-142.5 -95t-95 -142.5t-35.5 -173.5t35.5 -173.5t95 -142.5t142.5 -95t174 -35.5t173.5 35.5
t142.5 95t95 142.5t35 173.5t-35 173.5t-95 142.5t-142.5 95t-173.5 35.5zM769.5 257q-5.5 -11 -17 -15t-22.5 1l-236 79q-19 9 -17 29q-1 0 -1 1v2v327q0 12 8.5 21t21 9t21 -9t8.5 -21v-311l220 -73q12 -5 16 -17t-1.5 -23z" />
    <glyph glyph-name="-1" unicode="&#xe75b;" 
d="M40 621h870v-190h-870v190zM40 187h838v-190h-838v190zM40 456h694v-311h-694v311zM979 439h-43v129q0 45 -32 76.5t-77 31.5h-43v43q0 45 -27 76.5t-64 31.5h-602q-38 0 -64.5 -31.5t-26.5 -76.5v-117h6q-6 -17 -6 -34v-517q0 -45 32 -76.5t77 -31.5h718q45 0 76.5 31.5
t31.5 76.5v129h44q18 0 30.5 14t12.5 33v165q0 19 -12.5 33t-30.5 14zM149 774h507q69 0 69 -98h-667q0 44 26 71t65 27zM872 94q0 -88 -89 -88h-630q-90 0 -90 88v431q0 88 90 88h631q89 0 89 -88v-86h-133q-18 0 -30.5 -14t-12.5 -33v-165q0 -19 12.5 -33t30.5 -14h133
v-86h-1zM957 226h-174q-16 0 -22.5 0.5t-13.5 6.5t-7 18v117q0 13 7 18.5t13.5 6.5t22.5 1h174q18 0 20 -2.5t2 -23.5v-117q0 -20 -2 -22.5t-20 -2.5zM827 353q-18 0 -30.5 -13t-12.5 -30.5t12.5 -30t30.5 -12.5t31 12.5t13 30t-13 30.5t-31 13z" />
    <glyph glyph-name="-2" unicode="&#xe75c;" 
d="M62 722h261v-704h-261v704zM312 229h629v-244h-629v244zM430 178h188v-244h-188v244zM657 447h311v-257h-311v257zM430 203l329 329l182 -182l-329 -329zM41 442l330 329l182 -183l-329 -329zM962.5 445q-12.5 0 -22 -9.5t-9.5 -23.5v-344q0 -13 -9 -23t-22 -10h-270
l-9 -13q-59 -83 -100.5 -83t-99.5 83l-10 13h-297q-13 0 -22.5 10t-9.5 23v616q0 14 9.5 23.5t22.5 9.5h231q13 0 22 10t9 23.5t-9 23t-22 9.5h-231q-39 0 -67 -28.5t-28 -69.5v-616q0 -41 27.5 -69.5t66.5 -28.5h266q73 -97 141 -97q69 0 141 97h239q38 0 65.5 28.5
t27.5 69.5v344q1 13 -8.5 22.5t-22 9.5zM310 380q-8 -7 -11 -17l-39 -139q-3 -13 3.5 -24t18.5 -15q6 -2 11 -1q5 0 7 1l164 29q13 2 20 11l2 2l472 474q24 23 24 56t-24 57l-51 51q-23 23 -56 23t-56 -23l-483 -483q-1 0 -1.5 -1zM839 820q5 5 12 5t12 -5l51 -51
q5 -5 5 -12t-5 -12l-469 -472l-111 -19l24 84zM753 578l228 -135l-33 -55l-227 135zM353 786l240 -143l-33 -55l-239 143z" />
    <glyph glyph-name="-3" unicode="&#xe75d;" 
d="M109 152h591v-225h-591v225zM109 845h821v-702h-821v702zM716 421h-394q-9 0 -15.5 -6.5t-6.5 -15.5v-10q0 -9 6.5 -15.5t15.5 -6.5h394q9 0 15.5 6.5t6.5 15.5v10q0 9 -6.5 15.5t-15.5 6.5zM509 227h-188q-9 0 -15 -6.5t-6 -15.5v-11q0 -8 6 -14.5t15 -6.5h188
q9 0 15 6.5t6 14.5v11q0 9 -6 15.5t-15 6.5zM910 874h-783q-19 0 -32.5 -13t-13.5 -32v-892q0 -18 13.5 -31t32.5 -13h558q20 4 39 21l209 196q18 17 23 44v675q0 19 -13.5 32t-32.5 13zM899 117v1t-1 1h1v-2zM899 162h-179q-31 0 -41 -10t-10 -38v-111h-1v-57h-504
q-10 0 -17.5 7.5t-7.5 17.5v824q0 11 7.5 18t17.5 7h709q11 0 18.5 -7t7.5 -18v-633zM716 626h-394q-9 0 -15.5 -6.5t-6.5 -15.5v-11q0 -9 6.5 -15t15.5 -6h394q9 0 15.5 6t6.5 15v11q0 9 -6.5 15.5t-15.5 6.5z" />
    <glyph glyph-name="-4" unicode="&#xe760;" 
d="M66 731h904v-710h-904v710zM919 780h-813q-39 0 -66.5 -27.5t-27.5 -66.5v-626q0 -39 27.5 -66.5t66.5 -27.5h813q39 0 66.5 27.5t27.5 66.5v626q0 39 -27.5 66.5t-66.5 27.5zM951 92q0 -26 -18.5 -44.5t-44.5 -18.5h-751q-26 0 -44 18.5t-18 44.5v563q0 26 18 44t44 18
h751q26 0 44.5 -18t18.5 -44v-563zM698 245l45 -32h-552v-49h637v50l-102 71zM485 302h49v117h117v49h-117v45h117v49h-56l45 32l-29 41l-101 -71h-1l-101 71l-29 -41l46 -32h-57v-49h117v-45h-117v-49h117v-117z" />
    <glyph glyph-name="chanpinxiangqingyefenxiang" unicode="&#xe627;" 
d="M772.5 264q-65.5 0 -112 -46.5t-46.5 -112.5t46.5 -112.5t112 -46.5t112 46.5t46.5 112.5t-46.5 112.5t-112 46.5zM772.5 -23q-53.5 0 -91 37.5t-37.5 90.5t37.5 90.5t91 37.5t91 -37.5t37.5 -90.5t-37.5 -90.5t-91 -37.5zM623 159l12 28l-278 126q6 20 6 40q0 41 -21 77
l230 172q18 -44 58 -71t89 -27q65 0 111.5 46.5t46.5 112.5t-46.5 112.5t-112 46.5t-112 -46.5t-46.5 -112.5q0 -15 3 -30l-238 -178q-48 57 -121 57q-66 0 -112.5 -47t-46.5 -112.5t46.5 -112t112.5 -46.5q46 0 84.5 24.5t58.5 65.5zM718.5 791q53.5 0 91 -37.5t37.5 -90.5
t-37.5 -90.5t-91 -37.5t-91 37.5t-37.5 90.5t37.5 90.5t91 37.5zM203.5 224q-53.5 0 -91 38t-37.5 91t37.5 90.5t91 37.5t91 -37.5t37.5 -90.5t-37.5 -91t-91 -38z" />
    <glyph glyph-name="huiyuan-" unicode="&#xe761;" 
d="M530 321q68 33 109.5 98t41.5 143q0 111 -78.5 190t-190 79t-190 -79t-78.5 -190q0 -78 41.5 -143t109.5 -98q-118 -36 -196 -132.5t-88 -221.5q-1 -4 -1 -9v0q0 -9 6.5 -15.5t15.5 -6.5t15.5 6.5t6.5 15.5h1q9 141 112 238.5t245 97.5t245 -97.5t112 -238.5h1
q0 -9 6.5 -15.5t16 -6.5t16 6.5t6.5 15.5q0 4 -2 9q-9 125 -87.5 221.5t-195.5 132.5zM189 562q0 93 65.5 158.5t158 65.5t158 -65.5t65.5 -158.5t-65.5 -158.5t-158 -65.5t-158 65.5t-65.5 158.5zM1015 -33q-10 125 -88 221.5t-196 132.5q68 33 109.5 98t41.5 143
q0 111 -78.5 190t-189.5 79q-16 0 -36 -3q31 -19 54 -43q87 -7 146.5 -71t59.5 -152q0 -87 -59 -151t-145 -71q2 -6 2 -13q0 -1 -0.5 -2.5l-0.5 -1.5q32 -18 57 -38q115 -26 193 -116.5t86 -210.5h1q0 -9 6.5 -15.5t15.5 -6.5t15.5 6.5t6.5 15.5q0 4 -1 9zM1015 -33z" />
    <glyph glyph-name="lishi-" unicode="&#xe762;" 
d="M512.5 -121q-102.5 0 -195.5 39q-90 39 -160 108.5t-108 159.5q-39 94 -39 196t39 196q38 90 108 159.5t160 107.5q93 40 195.5 40t195.5 -40q91 -38 160.5 -107.5t107.5 -159.5q40 -94 40 -196t-40 -196q-38 -90 -107.5 -159.5t-160.5 -108.5q-93 -39 -195.5 -39z
M512.5 836q-92.5 0 -176.5 -36t-145 -96.5t-97 -145t-36 -176.5t36 -176.5t97 -145.5t145 -97t176.5 -36t176.5 36t145 97t97 145.5t36 176.5t-36 176.5t-97 145t-145 96.5t-176.5 36zM697 122q-13 0 -22 9l-193 193q-9 9 -9 22v341q0 13 9 22t22 9t22 -9t9 -22v-151v-177
l184 -184q9 -9 9 -22t-9 -22t-22 -9z" />
    <glyph glyph-name="yeji-" unicode="&#xe763;" 
d="M11 -49h1002v-67h-1002v67zM178 285q0 14 9.5 24t23.5 10t24 -10t10 -24v-367q0 -14 -10 -24t-23.5 -10t-23.5 10t-10 24v367zM378 619q0 14 10 24t24 10t23.5 -10t9.5 -24v-701q0 -14 -9.5 -24t-23.5 -10t-24 10t-10 24v701zM579 853q0 14 9.5 24t23.5 10t24 -10t10 -24
v-935q0 -14 -10 -24t-24 -10t-23.5 10t-9.5 24v935zM779 519q0 14 10 24t23.5 10t23.5 -10t10 -24v-601q0 -14 -9.5 -24t-23.5 -10t-24 10t-10 24v601z" />
    <glyph glyph-name="xiaofei-" unicode="&#xe764;" 
d="M511.5 -121q-102.5 0 -196 40t-161.5 108t-108 161t-39.5 195.5t40.5 196t107.5 161t160.5 107.5t196 41v0h1v0h8q11 0 19 -8t8 -19.5t-8 -19t-19 -7.5h-8v-19h-1v18q-91 1 -174.5 -35t-144 -96.5t-96 -143.5t-35.5 -175t35.5 -175t96 -143.5t144 -96.5t175 -36t174.5 36
t143.5 96.5t96.5 143.5t36 175v0.5v0.5h1v1q0 11 7.5 19t18.5 8t18.5 -8t7.5 -19v-1v0v25q1 -13 1 -26q0 -103 -40 -196t-108 -161t-161 -108t-195.5 -40zM1015 410v0v0v0zM944 385v0h17v0h-17zM974 702h-261q-14 0 -24.5 7.5t-10.5 19t10.5 19t24.5 7.5h261q15 0 25.5 -7.5
t10.5 -19t-10.5 -19t-25.5 -7.5zM494 125q0 -9 6.5 -15.5t15.5 -6.5t15.5 6.5t6.5 15.5v0v132h130v1q9 0 15.5 6.5t6.5 15.5t-6.5 15.5t-15.5 6.5h-130v69h130v0q9 0 15.5 6.5t6.5 16t-6.5 16t-15.5 6.5h-130v41l129 130v0q6 6 7 15.5t-5 16.5t-15 7.5t-16 -5.5l-122 -124
l-127 130q-7 6 -16 5.5t-15 -7.5t-5.5 -16.5t7.5 -15.5v0l134 -135v-42h-130v0q-9 0 -15.5 -6.5t-6.5 -16t6.5 -16t15.5 -6.5v0h130v-69h-130v0q-9 0 -15.5 -6.5t-6.5 -15.5t6.5 -16t15.5 -7v0h130v-132v0v0zM494 125z" />
    <glyph glyph-name="shoufei-" unicode="&#xe765;" 
d="M512.5 881q-101.5 0 -194 -39.5t-159.5 -106.5t-106.5 -159.5t-39.5 -194t39.5 -194.5t106.5 -160t159.5 -106.5t194 -39.5t194 39.5t159.5 106.5t107 159.5t40 194.5t-40 194.5t-106.5 159.5t-159.5 106.5t-194.5 39.5zM512.5 -65q-90.5 0 -173 35t-142.5 95
t-95.5 142.5t-35.5 173.5t35.5 173.5t95.5 142.5t142.5 95t173 35t173.5 -35t142.5 -95t95 -142.5t35.5 -173.5t-35.5 -173.5t-95 -142.5t-142.5 -95t-173.5 -35zM634 643l-80 -147q-31 -59 -39 -79h-1q-21 48 -118 226h-75l139 -239h-114v-53h133v-72h-133v-54h134v-106h66
v106h129v54h-129v72h129v53h-111l141 239h-71z" />
    <glyph glyph-name="huiyuantuiguangdingdan-" unicode="&#xe766;" 
d="M42 417h4q11 0 20 7.5t11 19.5q20 143 124 247t247 124q13 2 20.5 12.5t6 23t-12 20t-23.5 6.5q-163 -24 -281.5 -142.5t-142.5 -281.5q-1 -13 6.5 -23.5t20.5 -12.5zM448 -53q-143 20 -247 124t-124 247q-2 13 -12.5 20.5t-22.5 6.5q-13 -2 -20.5 -12.5t-6.5 -22.5
q24 -164 142.5 -282.5t282.5 -142.5h4q11 0 20 7.5t11 19.5q1 12 -6.5 22.5t-20.5 12.5zM980 345q-12 1 -22.5 -6.5t-12.5 -20.5q-20 -143 -124 -247t-247 -124q-13 -2 -20.5 -12.5t-6.5 -22.5q2 -12 11 -19.5t20 -7.5h4q164 24 282.5 142.5t142.5 281.5q1 13 -6.5 23.5
t-20.5 12.5zM574 815q143 -20 247 -124t124 -247q2 -12 11 -19.5t20 -7.5h4q13 2 20.5 12.5t6.5 23.5q-24 163 -142.5 281.5t-282.5 142.5q-12 1 -22.5 -6.5t-12 -20t6 -23t20.5 -12.5zM821 381q0 128 -91 219t-219 91t-219 -91t-91 -219t91 -219t219 -91t219 91t91 219z
M511 133q-103 0 -175.5 72.5t-72.5 175.5t72.5 175.5t175.5 72.5t175.5 -72.5t72.5 -175.5t-72.5 -175.5t-175.5 -72.5zM511 505q-51 0 -87.5 -36.5t-36.5 -87.5t36.5 -87.5t87.5 -36.5t87.5 36.5t36.5 87.5t-36.5 87.5t-87.5 36.5zM511 319q-26 0 -44 18t-18 44t18 44
t44 18t44 -18t18 -44t-18 -44t-44 -18z" />
    <glyph glyph-name="huiyuangoumaidingdan-" unicode="&#xe767;" 
d="M326 23q-29 0 -50 -21t-21 -50t21 -50t50 -21t50 21t21 50t-21 50t-50 21zM821 23q-29 0 -50 -21t-21 -50t21 -50t50 -21t50 21t21 50t-21 50t-50 21zM891 58h-574q-38 0 -68 26.5t-34 65.5l-60 422l-34 198q-2 12 -12 21.5t-22 9.5h-45q-14 0 -24.5 10.5t-10.5 25
t10.5 25t24.5 10.5h45q39 0 69 -27t35 -65l34 -197l60 -424q1 -12 10.5 -21t21.5 -9h574q15 0 25.5 -10.5t10.5 -25t-10.5 -25t-25.5 -10.5v0zM361 199q-14 0 -24 9.5t-11 23.5q-1 15 8.5 26t23.5 12l480 35q13 1 23 9.5t12 20.5l55 319q3 20 -9 33q-6 8 -17 8h-612
q-15 0 -25 10t-10 25t10 25t25 10h612q42 0 70 -31q33 -37 26 -90l-55 -319q-5 -38 -34.5 -64t-67.5 -26l-477 -35q-2 -1 -3 -1v0zM361 199z" />
    <glyph glyph-name="fencheng-" unicode="&#xe768;" 
d="M1003 400h-468v468v0q0 8 -5.5 13.5t-13.5 5.5v0q-103 0 -197 -40t-162 -108t-108 -162t-40 -197t40 -197t108 -162t162 -108t197 -40t197 40t162 108t108 162t40 197q0 8 -5.5 14t-13.5 6h-1zM496 -74q-118 0 -218 58.5t-158 159.5t-58 220q0 117 55 219.5t151 165.5
t210 68v-453q0 -7 5 -12.5t13 -5.5h448q-4 -115 -67 -212t-164.5 -152.5t-216.5 -55.5zM594 439h425q-20 174 -145 299t-300 146v-426q0 -8 6 -13.5t14 -5.5zM625 815q123 -26 211.5 -114.5t114.5 -211.5h-326v326v0z" />
  </font>
</defs>
</svg>
